<svg width="967" height="263" viewBox="0 0 967 263" fill="none" xmlns="http://www.w3.org/2000/svg">
<mask id="mask0_3_466" style="mask-type:luminance" maskUnits="userSpaceOnUse" x="0" y="73" width="967" height="190">
<path d="M0.734375 73.8177H966.932V262.469H0.734375V73.8177Z" fill="white"/>
</mask>
<g mask="url(#mask0_3_466)">
<path d="M966.385 204.672C966.526 205.094 966.495 205.542 966.073 205.964C957.266 214.964 948.464 223.995 939.656 232.969C946.667 240.766 953.708 248.536 960.719 256.307C961.193 256.839 961.167 257.427 960.885 257.875C961.698 258.578 962.177 259.615 962.12 260.766C962.094 261.469 961.531 262.198 960.745 262.141L958.083 261.943C957.662 261.917 957.406 261.75 957.182 261.495H10.5521C10.3281 261.75 10.0156 261.917 9.65106 261.943L6.98961 262.141C6.22919 262.198 5.64065 261.495 5.61461 260.766C5.55732 259.615 6.00523 258.578 6.84898 257.875C6.56773 257.401 6.54169 256.812 6.98961 256.307C14.0313 248.536 21.0677 240.766 28.0781 232.969C19.2448 223.995 10.4688 214.964 1.66148 205.964C1.23961 205.542 1.18232 205.094 1.32294 204.672C0.734398 203.911 1.04169 202.401 2.33336 202.344C2.3594 202.344 2.3594 202.344 2.39065 202.313C2.41669 201.948 2.58336 201.583 3.00523 201.333C10.1042 197.349 17.224 193.37 24.3229 189.328C24.0677 188.573 24.4636 187.563 25.5 187.505L4.26565 162.375C3.4844 161.422 4.21356 160.188 5.1094 160.021C5.13544 159.599 5.30732 159.234 5.72919 158.953C12.9375 154.438 20.1406 149.948 27.3802 145.432C20.1979 137.359 13.0469 129.25 5.83856 121.172C5.44794 120.724 5.41669 120.276 5.55732 119.828C4.71877 119.349 4.32294 118.063 5.44794 117.469C12.7084 113.74 19.974 109.984 27.2396 106.25C22.1615 95.849 16.0209 86.1719 8.75523 77.1927H8.02606C8.02606 76.8594 8.05211 76.5208 8.05211 76.1875C7.80211 75.6823 7.8594 75.1771 8.1094 74.7812V74.4479H8.33336C8.81252 73.9687 9.54169 73.8594 10.0729 74.4479H957.63C958.167 73.8594 958.922 73.9687 959.37 74.4479H959.594V74.7812C959.849 75.1771 959.906 75.6823 959.651 76.1875C959.651 76.5208 959.682 76.8594 959.682 77.1927H958.922C951.63 86.1719 945.516 95.849 940.438 106.25C947.703 109.984 954.969 113.74 962.234 117.469C963.328 118.031 962.964 119.349 962.12 119.828C962.26 120.276 962.203 120.724 961.839 121.172L940.297 145.432C947.505 149.948 954.745 154.438 961.953 158.953C962.401 159.234 962.542 159.599 962.568 160.021C963.469 160.188 964.198 161.422 963.412 162.375L942.177 187.505C943.214 187.563 943.609 188.573 943.328 189.328C950.422 193.339 957.547 197.323 964.646 201.333C965.094 201.583 965.26 201.948 965.292 202.313C965.292 202.344 965.318 202.344 965.318 202.344C966.693 202.401 967.026 203.911 966.385 204.672Z" fill="#E1C38C"/>
</g>
<mask id="mask1_3_466" style="mask-type:luminance" maskUnits="userSpaceOnUse" x="416" y="56" width="172" height="67">
<path d="M416 56H588V122.667H416V56Z" fill="white"/>
</mask>
<g mask="url(#mask1_3_466)">
<mask id="mask2_3_466" style="mask-type:luminance" maskUnits="userSpaceOnUse" x="328" y="-84" width="309" height="268">
<path d="M328.51 -16.4271L584.26 -83.9167L636.979 115.859L381.229 183.349L328.51 -16.4271Z" fill="white"/>
</mask>
<g mask="url(#mask2_3_466)">
<mask id="mask3_3_466" style="mask-type:luminance" maskUnits="userSpaceOnUse" x="328" y="-84" width="310" height="268">
<path d="M584.562 -84L328.807 -16.5104L381.526 183.266L637.281 115.776L584.562 -84Z" fill="white"/>
</mask>
<g mask="url(#mask3_3_466)">
<path fill-rule="evenodd" clip-rule="evenodd" d="M574.042 56.1354C578.547 57.2916 582.844 58.5104 586.969 59.776L584.714 101.182C538.266 86.4271 518.073 82.7448 444.24 120.464C440.422 122.417 436.328 122.526 432.411 120.776C428.495 119.026 425.844 115.906 424.75 111.755L416.177 79.276L574.042 56.1354Z" fill="#393838"/>
</g>
</g>
</g>
<mask id="mask4_3_466" style="mask-type:luminance" maskUnits="userSpaceOnUse" x="390" y="16" width="225" height="99">
<path d="M390.667 16H614.667V114.667H390.667V16Z" fill="white"/>
</mask>
<g mask="url(#mask4_3_466)">
<mask id="mask5_3_466" style="mask-type:luminance" maskUnits="userSpaceOnUse" x="328" y="-84" width="309" height="268">
<path d="M328.51 -16.4271L584.26 -83.9167L636.979 115.859L381.229 183.349L328.51 -16.4271Z" fill="white"/>
</mask>
<g mask="url(#mask5_3_466)">
<mask id="mask6_3_466" style="mask-type:luminance" maskUnits="userSpaceOnUse" x="328" y="-84" width="310" height="268">
<path d="M584.562 -84L328.807 -16.5104L381.526 183.266L637.281 115.776L584.562 -84Z" fill="white"/>
</mask>
<g mask="url(#mask6_3_466)">
<path fill-rule="evenodd" clip-rule="evenodd" d="M526.995 25.1927C620.589 53.0208 625.75 119.12 600.792 110.568C550.979 93.5 509.276 53.8854 436.776 106.516C373.229 152.651 355.203 -23.4635 526.995 25.1927Z" fill="black"/>
</g>
</g>
</g>
<mask id="mask7_3_466" style="mask-type:luminance" maskUnits="userSpaceOnUse" x="501" y="0" width="21" height="34">
<path d="M501.333 0H521.333V33.3333H501.333V0Z" fill="white"/>
</mask>
<g mask="url(#mask7_3_466)">
<mask id="mask8_3_466" style="mask-type:luminance" maskUnits="userSpaceOnUse" x="328" y="-84" width="309" height="268">
<path d="M328.51 -16.4271L584.26 -83.9167L636.979 115.859L381.229 183.349L328.51 -16.4271Z" fill="white"/>
</mask>
<g mask="url(#mask8_3_466)">
<mask id="mask9_3_466" style="mask-type:luminance" maskUnits="userSpaceOnUse" x="328" y="-84" width="310" height="268">
<path d="M584.562 -84L328.807 -16.5104L381.526 183.266L637.281 115.776L584.562 -84Z" fill="white"/>
</mask>
<g mask="url(#mask9_3_466)">
<path fill-rule="evenodd" clip-rule="evenodd" d="M511.266 30.5C511.266 30.5 525.031 17.7396 520.13 8.65625C515.234 -0.427085 505.203 -1.95313 503.255 5.83854C501.313 13.625 502.969 30.3177 506.708 31.7031C510.448 33.0937 511.266 30.5 511.266 30.5Z" fill="black"/>
</g>
</g>
</g>
<mask id="mask10_3_466" style="mask-type:luminance" maskUnits="userSpaceOnUse" x="506" y="4" width="16" height="23">
<path d="M506.667 4H521.333V26.6667H506.667V4Z" fill="white"/>
</mask>
<g mask="url(#mask10_3_466)">
<mask id="mask11_3_466" style="mask-type:luminance" maskUnits="userSpaceOnUse" x="328" y="-84" width="309" height="268">
<path d="M328.51 -16.4271L584.26 -83.9167L636.979 115.859L381.229 183.349L328.51 -16.4271Z" fill="white"/>
</mask>
<g mask="url(#mask11_3_466)">
<mask id="mask12_3_466" style="mask-type:luminance" maskUnits="userSpaceOnUse" x="328" y="-84" width="310" height="268">
<path d="M584.562 -84L328.807 -16.5104L381.526 183.266L637.281 115.776L584.562 -84Z" fill="white"/>
</mask>
<g mask="url(#mask12_3_466)">
<path fill-rule="evenodd" clip-rule="evenodd" d="M513.573 24.9375C513.573 24.9375 523.104 16.1042 519.714 9.8073C516.318 3.51563 509.375 2.46355 508.026 7.85417C506.677 13.25 507.823 24.8125 510.417 25.7708C513.005 26.7344 513.573 24.9375 513.573 24.9375Z" fill="#1A1A1A"/>
</g>
</g>
</g>
<mask id="mask13_3_466" style="mask-type:luminance" maskUnits="userSpaceOnUse" x="512" y="8" width="8" height="14">
<path d="M512 8H520V21.3333H512V8Z" fill="white"/>
</mask>
<g mask="url(#mask13_3_466)">
<mask id="mask14_3_466" style="mask-type:luminance" maskUnits="userSpaceOnUse" x="328" y="-84" width="309" height="268">
<path d="M328.51 -16.4271L584.26 -83.9167L636.979 115.859L381.229 183.349L328.51 -16.4271Z" fill="white"/>
</mask>
<g mask="url(#mask14_3_466)">
<mask id="mask15_3_466" style="mask-type:luminance" maskUnits="userSpaceOnUse" x="328" y="-84" width="310" height="268">
<path d="M584.562 -84L328.807 -16.5104L381.526 183.266L637.281 115.776L584.562 -84Z" fill="white"/>
</mask>
<g mask="url(#mask15_3_466)">
<path fill-rule="evenodd" clip-rule="evenodd" d="M515.578 19.8958C515.578 19.8958 520.88 14.9792 518.99 11.4792C517.104 7.97917 513.24 7.39063 512.49 10.3906C511.74 13.3906 512.38 19.8229 513.823 20.3594C515.26 20.8958 515.578 19.8958 515.578 19.8958Z" fill="#393838"/>
</g>
</g>
</g>
<mask id="mask16_3_466" style="mask-type:luminance" maskUnits="userSpaceOnUse" x="393" y="18" width="209" height="86">
<path d="M393.333 18.6667H601.333V104H393.333V18.6667Z" fill="white"/>
</mask>
<g mask="url(#mask16_3_466)">
<mask id="mask17_3_466" style="mask-type:luminance" maskUnits="userSpaceOnUse" x="328" y="-84" width="309" height="268">
<path d="M328.51 -16.4271L584.26 -83.9167L636.979 115.859L381.229 183.349L328.51 -16.4271Z" fill="white"/>
</mask>
<g mask="url(#mask17_3_466)">
<mask id="mask18_3_466" style="mask-type:luminance" maskUnits="userSpaceOnUse" x="328" y="-84" width="310" height="268">
<path d="M584.562 -84L328.807 -16.5104L381.526 183.266L637.281 115.776L584.562 -84Z" fill="white"/>
</mask>
<g mask="url(#mask18_3_466)">
<path fill-rule="evenodd" clip-rule="evenodd" d="M519.823 28.0521C546.349 35.6979 576.167 50.0573 592.516 73.3073C596.5 78.974 600.391 86.3646 601.193 93.3542C601.333 94.5833 601.495 99.3438 600.198 100.172C599.781 100.438 598.276 100.016 597.885 99.8802C590.25 97.2656 582.812 94.099 575.432 90.8385C562.755 85.2344 550.203 79.3281 536.974 75.0885C520.526 69.8229 504.318 67.6146 487.12 70.1563C465.172 73.4063 445.172 83.8958 427.396 96.8021C421.219 101.286 412.422 105.583 404.917 101.661C397.651 97.8594 394.432 88.2552 393.677 80.625C392.5 68.8438 396 56.6615 402.667 46.9427C411.703 33.776 425.802 25.9115 441.109 22.2604C466.359 16.2396 495.297 20.9844 519.823 28.0521Z" fill="#1A1A1A"/>
</g>
</g>
</g>
<mask id="mask19_3_466" style="mask-type:luminance" maskUnits="userSpaceOnUse" x="397" y="24" width="194" height="71">
<path d="M397.333 24H590.667V94.6667H397.333V24Z" fill="white"/>
</mask>
<g mask="url(#mask19_3_466)">
<mask id="mask20_3_466" style="mask-type:luminance" maskUnits="userSpaceOnUse" x="328" y="-84" width="309" height="268">
<path d="M328.51 -16.4271L584.26 -83.9167L636.979 115.859L381.229 183.349L328.51 -16.4271Z" fill="white"/>
</mask>
<g mask="url(#mask20_3_466)">
<mask id="mask21_3_466" style="mask-type:luminance" maskUnits="userSpaceOnUse" x="328" y="-84" width="310" height="268">
<path d="M584.562 -84L328.807 -16.5104L381.526 183.266L637.281 115.776L584.562 -84Z" fill="white"/>
</mask>
<g mask="url(#mask21_3_466)">
<path fill-rule="evenodd" clip-rule="evenodd" d="M590.583 88.3542C585.495 86.3854 580.479 84.224 575.495 82.0156C562.573 76.3073 549.812 70.3177 536.333 66C492.703 52.0208 456.922 62.224 420.411 88.7292C416.854 91.3125 410 95.4479 405.401 93.0417C400.542 90.5 398.427 82.5521 397.932 77.599C396.927 67.4896 399.995 56.974 405.714 48.6406C428.594 15.2969 482.323 23.125 515.047 32.5573C538.161 39.2188 563.24 50.8438 579.359 69.3073C583.687 74.2656 587.781 80.2448 590 86.4844C590.167 86.9531 590.375 87.6042 590.583 88.3542Z" fill="#393838"/>
</g>
</g>
</g>
<path d="M95.7131 182.536L95.6714 182.703L95.2339 189.453L95.0673 192.557L94.9839 193.369L94.9214 194.203C95.0152 195.427 94.786 196.677 94.2339 197.953C94.0256 198.442 93.8642 198.932 93.7548 199.432C93.3485 201.349 92.3381 203.375 90.7131 205.515L89.0464 207.911C88.6142 208.578 88.135 209.026 87.6089 209.265C86.8277 209.609 86.1194 210.119 85.4839 210.786C84.9527 211.338 84.2131 211.645 83.2548 211.703C81.4892 211.786 79.5569 211.38 77.4631 210.494C76.5725 210.078 75.5464 209.52 74.3798 208.828L72.8589 207.911L71.3798 206.953C69.9475 206.088 68.786 205.036 67.9006 203.786C66.01 201.203 64.7756 198.687 64.1923 196.244C63.2339 192.036 62.6714 187.776 62.5048 183.453L62.3173 177.182L62.2339 170.869V165.203L62.3173 159.494V159.203L62.7964 153.703C63.0048 151.51 63.2027 149.671 63.4006 148.182C64.1089 143.072 66.286 138.718 69.9423 135.119C70.7183 134.369 71.6767 133.546 72.8173 132.64L75.7756 130.369C76.1767 130.052 76.5777 129.822 76.9839 129.682C79.0777 128.963 80.9839 128.724 82.6923 128.974C83.51 129.099 84.161 129.468 84.6506 130.078L85.7548 131.557L86.2339 132.286L86.6923 132.994C87.4839 133.984 88.036 135.276 88.3589 136.869C88.6767 138.343 88.7964 139.677 88.7131 140.869C88.6402 141.328 88.6558 141.864 88.7548 142.474L88.9631 144.036L89.2756 146.432L89.3589 148.786C89.411 149.744 89.2808 150.505 88.9631 151.057C88.8798 151.197 88.76 151.265 88.6089 151.265L88.4006 151.224L88.2756 151.057L87.7548 149.453L87.5256 148.39L87.3173 147.349L87.1298 146.619L86.8798 145.869L86.0048 143.911L85.2131 141.911C84.1142 139.328 82.7964 137.281 81.2548 135.765C80.9058 135.421 80.5308 135.39 80.1298 135.682C79.0569 136.531 78.2444 137.515 77.6923 138.64L77.2548 139.515L76.8589 140.432C76.5673 141.13 76.3902 141.765 76.3381 142.349L76.3798 143.619L76.4214 144.828L76.3381 145.349L76.1714 145.911C76.0464 146.385 75.9839 146.765 75.9839 147.057C75.9839 147.807 75.8694 148.781 75.6506 149.974C75.4423 151.015 75.4058 152.234 75.5464 153.619L75.7756 156.849L75.9006 160.057L76.1714 166.474L76.3381 169.349L76.4631 172.161L76.7756 176.744L77.1298 181.349L77.2131 182.494L77.2548 183.619L77.3381 185.099L77.5256 186.536L77.9423 189.494C78.1506 190.609 78.4006 191.578 78.6923 192.411C79.1767 193.776 79.7131 194.921 80.2964 195.849C81.0308 197.015 81.7339 197.906 82.4006 198.515C83.286 199.39 84.2444 199.432 85.2756 198.64C86.9006 197.447 88.0985 196.343 88.8798 195.328C89.5725 194.401 90.0673 193.224 90.3589 191.807C90.6506 190.13 91.0725 188.182 91.6298 185.974L91.8798 184.619C92.1142 183.078 92.4214 181.828 92.7964 180.869C92.9475 180.552 93.0673 180.119 93.1506 179.578L93.3173 178.182L93.3589 177.911L93.4006 177.661C93.4683 177.453 93.5881 177.322 93.7548 177.265C93.9631 177.213 94.1506 177.255 94.3173 177.39L94.5048 177.661L94.7131 177.869L94.9214 178.182L95.1506 178.474C95.8694 179.349 96.1142 180.411 95.8798 181.661L95.7964 181.974L95.7131 182.453V182.536Z" fill="#400000"/>
<path d="M125.714 150.828C125.339 152.052 125.016 153.447 124.755 155.015L124.235 159.161L123.922 162.286C123.782 163.484 123.61 164.531 123.401 165.432L123.276 166.39C123.219 166.88 123.433 167.119 123.922 167.119C124.297 167.119 124.677 167.078 125.068 166.994L129.151 166.078C130.026 165.869 130.344 165.302 130.11 164.369L129.714 162.994L128.547 159.453L127.63 156.453L126.672 153.411L126.235 152.14L125.714 150.828ZM105.422 198.515L105.464 197.078C105.433 196.494 105.464 195.843 105.547 195.119C105.672 194.359 105.735 193.599 105.735 192.849C105.636 190.796 105.865 187.776 106.422 183.786L106.943 179.265L107.464 174.078L107.985 168.953L108.255 167.244L108.505 165.557L109.026 160.244L109.61 154.89L109.943 152.015L110.339 149.099L110.693 146.39L111.089 143.703C111.38 141.552 111.537 139.755 111.568 138.307L111.693 137.244L111.86 136.203L112.526 130.724C112.61 129.906 112.953 129.401 113.568 129.203C114.401 128.885 115.11 128.26 115.693 127.328L115.964 126.974L116.214 126.682C116.532 126.364 116.823 126.317 117.089 126.536C117.38 126.744 117.818 126.968 118.401 127.203L119.089 127.453L119.693 127.807C120.245 128.182 120.922 128.385 121.714 128.411C123.63 128.442 125.047 129.515 125.964 131.64C127.157 134.338 128.464 138.239 129.88 143.349L130.755 146.307L131.547 149.265L131.985 150.536L132.422 151.744L133.235 154.286L134.068 156.849C134.761 158.932 135.266 160.64 135.589 161.974C135.88 163.057 136.318 164.161 136.901 165.286L137.505 166.807L138.026 168.349L140.214 173.786L140.464 174.307L140.61 174.828C140.662 175.703 140.891 176.661 141.297 177.703L141.818 179.015L142.422 180.349C142.948 181.463 143.505 182.765 144.089 184.265L145.526 188.244C145.985 189.484 146.532 190.828 147.172 192.286C147.547 193.161 147.808 194.093 147.964 195.078C148.016 195.484 148.016 195.911 147.964 196.369C147.808 197.484 147.172 198.119 146.047 198.286C145.547 198.385 145.162 198.239 144.901 197.849L143.86 196.432L142.818 194.994C141.985 193.859 141.36 192.838 140.943 191.932L139.255 188.453L137.589 184.974C136.38 182.307 135.391 179.927 134.63 177.828L133.505 174.599L132.38 171.39L132.235 170.953L132.068 170.474C131.86 169.947 131.433 169.734 130.797 169.828C128.448 170.151 126.568 170.218 125.151 170.036C124.162 169.901 123.511 169.953 123.193 170.203C122.87 170.468 122.636 171.093 122.485 172.078L119.797 189.057L119.36 191.161L118.36 195.411C117.828 198.036 117.058 200.099 116.047 201.599C115.782 202 115.578 202.567 115.443 203.307C115.261 204.234 114.662 205.078 113.651 205.828C112.636 206.546 111.651 206.88 110.693 206.828L108.61 206.744C108.052 206.77 107.526 206.625 107.026 206.307L106.422 205.828L105.818 205.265C105.235 204.708 104.969 203.911 105.026 202.869L105.422 198.515Z" fill="#400000"/>
<path d="M172.941 151.974L172.982 153.536C173.024 153.994 173.113 154.447 173.253 154.89C173.389 155.406 173.712 155.567 174.212 155.369L175.649 154.765L177.045 154.057C178.087 153.531 178.941 152.932 179.607 152.265C180.508 151.432 181.014 150.494 181.128 149.453C181.389 147.01 181.295 144.859 180.837 142.994C180.045 140.036 178.326 137.703 175.691 135.994C174.941 135.526 174.232 135.432 173.566 135.724L173.087 135.911L172.566 136.078C172.149 136.218 171.951 136.526 171.982 136.994L172.691 146.744L172.982 151.974H172.941ZM173.607 168.203C173.024 172.036 172.8 175.322 172.941 178.057C172.967 178.838 172.899 179.76 172.732 180.828C172.576 181.703 172.524 182.677 172.566 183.744L172.462 186.849L172.295 189.849L172.212 202.599C172.212 204 172.008 205.13 171.607 205.994L171.253 206.786L170.941 207.619C170.701 208.286 170.462 208.807 170.212 209.182L169.857 209.703L169.503 210.182C168.889 210.875 168.154 211.036 167.295 210.661L164.857 209.536L162.42 208.39C160.795 207.666 159.863 206.291 159.628 204.265L159.316 200.828L159.024 197.682L158.837 194.557L158.712 191.849L158.399 189.161L157.441 180.661C157.274 179.244 157.128 177.474 157.003 175.349L156.67 170.078C156.43 166.661 156.326 162.671 156.357 158.099L156.524 146.182L156.67 138.64L156.795 131.161C156.821 129.651 157.243 128.401 158.066 127.411C158.758 126.567 159.597 126.14 160.587 126.14C161.837 126.182 162.764 126.26 163.378 126.369L165.42 126.765L167.462 127.203C168.279 127.369 168.889 127.864 169.295 128.682C169.878 129.864 170.451 130.734 171.024 131.286L171.295 131.64L171.462 132.036C171.837 132.786 172.446 133.072 173.295 132.89L173.649 132.849L173.982 132.765C175.383 132.281 176.868 132.531 178.441 133.515C179.941 134.447 181.618 136.26 183.482 138.953C184.842 140.901 185.68 142.859 186.003 144.828C186.446 147.494 186.045 150.026 184.795 152.411C184.529 152.927 184.092 153.531 183.482 154.224L182.795 155.099L182.128 156.015C181.837 156.421 181.326 156.796 180.607 157.14L179.482 157.619C178.784 157.984 178.613 158.494 178.962 159.161L180.003 161.328L181.128 163.515L182.607 165.911L184.087 168.244L184.441 168.765L184.753 169.244C185.738 171.078 187.071 173.317 188.753 175.953L190.795 179.224L192.878 182.494L193.587 183.494C194.305 184.427 195.092 185.546 195.941 186.849L198.149 190.286L200.857 194.557C201.409 195.421 201.878 196.359 202.253 197.369C202.68 198.567 202.738 199.52 202.42 200.244C202.305 200.562 202.295 200.895 202.378 201.244C202.488 201.713 202.472 202.213 202.337 202.744L202.128 203.432L201.857 204.119C201.774 204.38 201.571 204.578 201.253 204.703C200.462 205.02 199.967 205.145 199.774 205.078C199.534 205.02 199.17 204.661 198.67 203.994L197.899 202.828C197.55 202.161 197.071 201.588 196.462 201.119C195.795 200.604 195.18 199.911 194.628 199.036L192.628 195.994L191.982 195.161C191.159 194.286 190.201 193.114 189.107 191.64L187.753 189.807L186.399 188.015C184.342 185.432 182.758 183.276 181.649 181.536L179.732 178.619L177.774 175.744C176.701 174.177 175.758 172.505 174.941 170.724L174.337 169.474L173.607 168.203Z" fill="#400000"/>
<path d="M245.355 172.744C245.465 169.817 245.418 167.578 245.209 166.036C245.126 165.161 245.069 164.114 245.043 162.89L245.084 159.765V157.286C244.944 152.442 244.944 146.968 245.084 140.869L245.314 137.515L245.605 134.119L245.751 130.015C245.777 129.005 245.86 128.177 246.001 127.536C246.137 127.078 246.34 126.661 246.605 126.286C246.98 125.76 247.444 125.572 248.001 125.724L252.48 126.807C253.298 127.005 254.043 127.364 254.709 127.89C255.209 128.322 255.647 128.64 256.022 128.849C257.272 129.515 258.137 130.661 258.626 132.286L260.23 138.349C260.381 138.89 260.47 139.468 260.501 140.078L260.626 145.619L260.772 149.536L260.814 153.453C260.897 157.286 260.803 160.244 260.543 162.328L260.501 162.682V163.036C260.527 163.26 260.699 163.401 261.022 163.453L261.105 163.64L261.189 163.932L261.147 164.807L260.459 171.557L260.376 171.828C260.345 171.885 260.272 171.885 260.147 171.828C260.147 171.828 260.012 171.656 259.751 171.307L259.418 173.557L259.105 175.786C258.866 177.703 258.814 179.359 258.939 180.744C259.048 182.343 258.918 184.234 258.543 186.411L258.314 188.536L258.23 189.453C257.965 191.026 257.053 191.661 255.501 191.369C253.001 190.911 251.126 190.39 249.876 189.807C248.303 189.088 247.241 187.927 246.689 186.328L246.209 185.182L245.751 184.015C245.334 183.114 245.084 182.328 245.001 181.661L244.834 181.224L244.605 180.828L239.168 171.869C238.668 171.026 238.069 169.921 237.376 168.557L233.939 161.494L232.897 159.369L231.814 157.203L231.064 155.765L230.293 154.369L230.147 154.286L229.98 154.182C229.84 154.255 229.772 154.369 229.772 154.536L229.814 154.932L230.418 159.64L231.022 164.286C231.449 167.078 231.543 169.276 231.293 170.869C231.22 171.328 231.235 171.921 231.334 172.64L231.459 174.703L231.376 176.744C231.319 178.317 231.105 180.286 230.73 182.661L229.855 188.578C229.73 189.484 229.506 190.557 229.189 191.807L228.23 194.932L227.418 197.849C227.209 198.64 226.715 199.104 225.939 199.244L225.418 199.349C224.22 199.276 223.131 199.651 222.147 200.474C221.564 200.932 220.949 200.838 220.314 200.203C220.022 199.911 219.631 199.64 219.147 199.39L217.751 198.64C217.012 198.296 216.522 197.656 216.272 196.724L215.23 192.932L214.168 189.161L213.48 186.015C213.272 184.849 213.168 183.786 213.168 182.828C213.194 181.817 213.168 180.572 213.084 179.099L212.834 175.39L212.605 170.307C212.522 168.364 212.36 166.677 212.126 165.244L212.001 164.119L211.959 162.932L211.355 156.536L210.959 152.744L210.772 148.911C210.657 142.302 210.673 136.718 210.814 132.161L211.001 128.161C211.084 126.536 211.11 125.197 211.084 124.14C211.053 123.182 211.532 122.531 212.522 122.182L214.314 121.661L216.084 121.14L216.272 121.099C217.105 120.932 218.048 121.026 219.105 121.369L220.397 121.89L221.709 122.453C222.72 122.859 223.506 123.697 224.064 124.974L224.876 126.849C225.194 127.599 225.418 128.255 225.543 128.807C225.626 129.13 225.798 129.432 226.064 129.724C226.647 130.421 226.923 131.244 226.897 132.203C226.824 133.802 227.402 135.453 228.626 137.161C229.152 137.859 229.72 138.828 230.334 140.078L233.334 146.265L236.209 152.494L238.001 156.453C238.626 157.994 239.147 159.359 239.564 160.536C240.366 162.984 241.512 165.656 243.001 168.557L243.834 170.307L244.647 172.078L244.834 172.432C244.944 172.546 245.116 172.651 245.355 172.744Z" fill="#400000"/>
<path d="M300.152 163.849C300.36 174.156 299.902 183.474 298.777 191.807L298.631 192.724L298.464 193.557C298.282 194.197 297.933 194.744 297.422 195.203C297.016 195.578 296.974 195.828 297.297 195.953L297.714 195.994H298.193L301.214 196.161L304.172 196.286L304.652 196.369L305.089 196.474C305.365 196.614 305.506 196.869 305.506 197.244C305.506 198.067 305.058 198.515 304.172 198.599L302.172 198.807L300.152 198.953C298.527 199.062 297.193 199.25 296.152 199.515C294.204 199.942 291.381 199.942 287.672 199.515L283.443 199.036C281.87 198.953 280.448 199.057 279.172 199.349C278.849 199.401 278.61 199.328 278.443 199.119L278.214 198.765L278.047 198.39C277.808 197.546 278.131 197.005 279.006 196.765C280.766 196.364 282.193 196.151 283.277 196.119C284.719 196.036 285.443 195.265 285.443 193.807C285.469 178.171 283.948 155.171 280.881 124.807C280.724 123.182 279.912 122.442 278.443 122.578H276.61L274.818 122.411C273.344 122.359 272.141 122.442 271.214 122.661C270.74 122.786 270.37 122.677 270.11 122.328C269.969 122.151 269.943 121.942 270.027 121.703L270.381 121.182C270.964 120.322 271.865 119.906 273.089 119.932C276.016 120.046 280.053 119.781 285.193 119.14L291.235 118.349C293.495 118.13 295.516 118.015 297.297 118.015H298.777C299.37 118.015 299.865 118.072 300.256 118.182C301.323 118.39 301.928 118.901 302.068 119.703C302.162 120.369 301.719 120.88 300.735 121.224L299.422 121.619L298.11 121.932C297.844 122.046 297.443 122.114 296.902 122.14L295.672 122.328L295.193 122.453L294.839 122.703C294.589 122.968 294.62 123.26 294.943 123.578C295.829 124.401 296.381 125.474 296.589 126.807L296.756 128.64L296.86 130.369L297.985 138.682L298.985 147.099C299.704 153.474 300.094 159.057 300.152 163.849Z" fill="#400000"/>
<path d="M342.701 184.015C342.81 183.932 342.893 183.802 342.951 183.619L343.096 183.182L344.18 179.307L345.18 175.39L345.826 172.432L346.43 169.432L348.013 161.974C348.648 159.197 349.273 156.734 349.888 154.578C350.555 152.26 351.419 148.864 352.492 144.39L353.534 139.786L354.534 135.161L355.096 132.807L355.68 130.494C356.164 128.786 356.711 127.281 357.326 125.974L357.721 124.765L358.117 123.494C358.435 122.484 358.971 122.364 359.721 123.14C360.065 123.515 360.201 123.942 360.117 124.411L359.805 126.057L359.076 131.328L358.409 136.64C358.268 137.921 357.961 139.401 357.492 141.078C357.003 142.734 356.539 144.984 356.096 147.828L355.326 152.578C355.034 154.411 354.742 155.984 354.451 157.286L353.763 160.64L353.138 164.036C352.997 164.869 352.753 165.927 352.409 167.203L351.534 170.349C350.893 172.807 350.211 175.26 349.492 177.703L348.409 181.182L347.263 184.661L346.263 187.724L345.305 190.765L344.617 192.807L343.826 194.765C343.477 195.614 342.914 196.182 342.138 196.474C341.789 196.588 341.482 196.828 341.221 197.203C340.721 197.953 339.992 198.328 339.034 198.328C338.169 198.302 337.461 198.364 336.909 198.515L336.68 198.599H336.471C334.607 198.307 333.201 197.963 332.242 197.557C331.544 197.296 331.039 196.739 330.721 195.89C330.315 194.906 330.023 194.093 329.846 193.453C329.555 192.411 329.06 191.036 328.367 189.328L327.805 187.724L327.242 186.14C326.628 184.432 325.898 182.244 325.055 179.578L322.971 172.953C322.596 171.828 322.206 170.406 321.805 168.682L320.846 164.369L320.701 163.765C320.242 162.432 319.794 160.739 319.367 158.682L318.888 156.099L318.305 153.536L317.701 150.619L317.138 147.703C316.68 145.328 316.242 143.401 315.826 141.911C315.576 141.01 315.357 139.932 315.18 138.682L314.742 135.474L314.534 133.765C314.326 132.463 314.872 131.651 316.18 131.328L317.055 131.161L317.971 131.036L318.659 130.974L319.326 130.89C321.143 130.432 322.956 131.015 324.763 132.64L325.159 133.078C325.503 133.51 325.919 133.765 326.409 133.849C327.685 134.114 328.659 134.947 329.326 136.349L329.763 137.286C331.18 141.093 332.138 144.406 332.638 147.224V147.39C332.898 148.213 333.164 149.38 333.43 150.89L333.721 152.619L334.117 154.411C334.492 155.911 334.93 157.463 335.43 159.057L336.826 163.515L338.076 167.994L338.305 168.64L338.513 169.307L340.596 175.661C341.096 177.26 341.477 178.942 341.742 180.703L342.034 182.265L342.471 183.849L342.555 183.932L342.701 184.015Z" fill="#400000"/>
<path d="M389.717 150.828C389.342 152.052 389.019 153.447 388.759 155.015L388.238 159.161L387.926 162.286C387.785 163.484 387.613 164.531 387.405 165.432L387.28 166.39C387.222 166.88 387.436 167.119 387.926 167.119C388.301 167.119 388.681 167.078 389.071 166.994L393.155 166.078C394.03 165.869 394.347 165.302 394.113 164.369L393.717 162.994L392.551 159.453L391.634 156.453L390.676 153.411L390.238 152.14L389.717 150.828ZM369.426 198.515L369.467 197.078C369.436 196.494 369.467 195.843 369.551 195.119C369.676 194.359 369.738 193.599 369.738 192.849C369.639 190.796 369.868 187.776 370.426 183.786L370.946 179.265L371.467 174.078L371.988 168.953L372.259 167.244L372.509 165.557L373.03 160.244L373.613 154.89L373.946 152.015L374.342 149.099L374.696 146.39L375.092 143.703C375.384 141.552 375.54 139.755 375.571 138.307L375.696 137.244L375.863 136.203L376.53 130.724C376.613 129.906 376.957 129.401 377.571 129.203C378.405 128.885 379.113 128.26 379.696 127.328L379.967 126.974L380.217 126.682C380.535 126.364 380.827 126.317 381.092 126.536C381.384 126.744 381.821 126.968 382.405 127.203L383.092 127.453L383.696 127.807C384.248 128.182 384.926 128.385 385.717 128.411C387.634 128.442 389.051 129.515 389.967 131.64C391.16 134.338 392.467 138.239 393.884 143.349L394.759 146.307L395.551 149.265L395.988 150.536L396.426 151.744L397.238 154.286L398.071 156.849C398.764 158.932 399.269 160.64 399.592 161.974C399.884 163.057 400.321 164.161 400.905 165.286L401.509 166.807L402.03 168.349L404.217 173.786L404.467 174.307L404.613 174.828C404.665 175.703 404.894 176.661 405.301 177.703L405.821 179.015L406.426 180.349C406.952 181.463 407.509 182.765 408.092 184.265L409.53 188.244C409.988 189.484 410.535 190.828 411.176 192.286C411.551 193.161 411.811 194.093 411.967 195.078C412.019 195.484 412.019 195.911 411.967 196.369C411.811 197.484 411.176 198.119 410.051 198.286C409.551 198.385 409.165 198.239 408.905 197.849L407.863 196.432L406.821 194.994C405.988 193.859 405.363 192.838 404.946 191.932L403.259 188.453L401.592 184.974C400.384 182.307 399.394 179.927 398.634 177.828L397.509 174.599L396.384 171.39L396.238 170.953L396.071 170.474C395.863 169.947 395.436 169.734 394.801 169.828C392.452 170.151 390.571 170.218 389.155 170.036C388.165 169.901 387.514 169.953 387.196 170.203C386.873 170.468 386.639 171.093 386.488 172.078L383.801 189.057L383.363 191.161L382.363 195.411C381.832 198.036 381.061 200.099 380.051 201.599C379.785 202 379.582 202.567 379.446 203.307C379.264 204.234 378.665 205.078 377.655 205.828C376.639 206.546 375.655 206.88 374.696 206.828L372.613 206.744C372.056 206.77 371.53 206.625 371.03 206.307L370.426 205.828L369.821 205.265C369.238 204.708 368.972 203.911 369.03 202.869L369.426 198.515Z" fill="#400000"/>
<path d="M439.173 163.724C438.673 168.224 438.392 173.817 438.34 180.494V188.619L438.173 196.682C438.09 198.708 438.277 199.974 438.736 200.474C439.163 200.984 440.35 201.229 442.298 201.203L447.173 201.307L452.048 201.474C456.033 201.583 459.277 201.526 461.777 201.307L462.298 201.203L462.819 201.119C463.194 201.119 463.408 201.265 463.465 201.557C463.517 201.817 463.449 202.151 463.257 202.557C463.1 202.901 462.882 203.234 462.59 203.557C462.241 203.932 461.72 204.119 461.027 204.119L457.069 204.307L453.111 204.599C449.887 204.807 447.241 204.807 445.173 204.599C442.715 204.349 440.142 204.796 437.465 205.953C434.824 207.088 432.142 207.567 429.423 207.39L428.34 207.349C427.923 207.375 427.579 207.432 427.319 207.515C425.871 208.099 424.829 208.015 424.194 207.265C423.762 206.765 423.413 205.807 423.152 204.39C421.819 196.671 421.007 187.536 420.715 176.994L420.486 163.244L420.361 149.494C420.329 147.234 420.361 144.557 420.444 141.474L420.757 133.432C420.991 126.838 420.913 121.489 420.527 117.39C420.47 116.505 420.746 115.953 421.361 115.744C424.319 114.677 427.829 115.463 431.902 118.099C434.079 119.546 435.517 121.572 436.215 124.182C436.449 125.057 436.652 126.255 436.819 127.765L436.986 129.557L437.257 131.369C438.767 140.177 439.449 149.802 439.298 160.244L439.257 162.286L439.215 163.119L439.173 163.724Z" fill="#400000"/>
<path d="M528.376 182.536L528.334 182.703L527.897 189.453L527.73 192.557L527.647 193.369L527.584 194.203C527.678 195.427 527.449 196.677 526.897 197.953C526.688 198.442 526.527 198.932 526.417 199.432C526.011 201.349 525.001 203.375 523.376 205.515L521.709 207.911C521.277 208.578 520.798 209.026 520.272 209.265C519.49 209.609 518.782 210.119 518.147 210.786C517.615 211.338 516.876 211.645 515.917 211.703C514.152 211.786 512.219 211.38 510.126 210.494C509.235 210.078 508.209 209.52 507.042 208.828L505.522 207.911L504.042 206.953C502.61 206.088 501.449 205.036 500.563 203.786C498.673 201.203 497.438 198.687 496.855 196.244C495.897 192.036 495.334 187.776 495.167 183.453L494.98 177.182L494.897 170.869V165.203L494.98 159.494V159.203L495.459 153.703C495.667 151.51 495.865 149.671 496.063 148.182C496.772 143.072 498.949 138.718 502.605 135.119C503.381 134.369 504.339 133.546 505.48 132.64L508.438 130.369C508.839 130.052 509.24 129.822 509.647 129.682C511.74 128.963 513.647 128.724 515.355 128.974C516.173 129.099 516.824 129.468 517.313 130.078L518.417 131.557L518.897 132.286L519.355 132.994C520.147 133.984 520.699 135.276 521.022 136.869C521.339 138.343 521.459 139.677 521.376 140.869C521.303 141.328 521.318 141.864 521.417 142.474L521.626 144.036L521.938 146.432L522.022 148.786C522.074 149.744 521.943 150.505 521.626 151.057C521.542 151.197 521.423 151.265 521.272 151.265L521.063 151.224L520.938 151.057L520.417 149.453L520.188 148.39L519.98 147.349L519.792 146.619L519.542 145.869L518.667 143.911L517.876 141.911C516.777 139.328 515.459 137.281 513.917 135.765C513.568 135.421 513.193 135.39 512.792 135.682C511.719 136.531 510.907 137.515 510.355 138.64L509.917 139.515L509.522 140.432C509.23 141.13 509.053 141.765 509.001 142.349L509.042 143.619L509.084 144.828L509.001 145.349L508.834 145.911C508.709 146.385 508.647 146.765 508.647 147.057C508.647 147.807 508.532 148.781 508.313 149.974C508.105 151.015 508.068 152.234 508.209 153.619L508.438 156.849L508.563 160.057L508.834 166.474L509.001 169.349L509.126 172.161L509.438 176.744L509.792 181.349L509.876 182.494L509.917 183.619L510.001 185.099L510.188 186.536L510.605 189.494C510.813 190.609 511.063 191.578 511.355 192.411C511.839 193.776 512.376 194.921 512.959 195.849C513.693 197.015 514.397 197.906 515.063 198.515C515.949 199.39 516.907 199.432 517.938 198.64C519.563 197.447 520.761 196.343 521.542 195.328C522.235 194.401 522.73 193.224 523.022 191.807C523.313 190.13 523.735 188.182 524.292 185.974L524.542 184.619C524.777 183.078 525.084 181.828 525.459 180.869C525.61 180.552 525.73 180.119 525.813 179.578L525.98 178.182L526.022 177.911L526.063 177.661C526.131 177.453 526.251 177.322 526.417 177.265C526.626 177.213 526.813 177.255 526.98 177.39L527.167 177.661L527.376 177.869L527.584 178.182L527.813 178.474C528.532 179.349 528.777 180.411 528.542 181.661L528.459 181.974L528.376 182.453V182.536Z" fill="#400000"/>
<path d="M587.105 126.244C586.465 123.885 585.173 122.531 583.23 122.182C580.908 121.781 578.819 122.192 576.96 123.411C575.095 124.692 574.137 126.359 574.085 128.411L573.647 138.119L573.272 147.786C573.199 149.359 572.564 150.593 571.355 151.494C569.408 152.859 567.085 153.765 564.376 154.224C563.303 154.432 562.074 154.578 560.689 154.661L556.939 154.807C556.439 154.807 556.132 154.614 556.022 154.224L555.939 153.661V153.099L555.855 148.015C555.824 145.974 555.736 144.286 555.585 142.953L554.71 134.557L553.668 126.14L553.418 123.807C553.319 122.906 553.158 122.177 552.939 121.619C552.355 120.151 551.105 119.296 549.189 119.057L546.751 118.786L544.314 118.661C542.48 118.718 540.939 119.239 539.689 120.224C538.48 121.182 537.918 122.328 538.001 123.661C538.319 128.401 538.465 134.442 538.439 141.786L538.397 150.786L538.439 159.849L538.647 170.994L538.73 182.182C538.673 190.546 538.34 197.974 537.73 204.474C537.647 205.484 537.923 206.244 538.564 206.744C539.23 207.229 539.939 207.203 540.689 206.661C541.715 205.921 543.137 205.729 544.96 206.078C548.069 206.687 550.116 205.671 551.105 203.036C552.116 200.395 552.798 197.88 553.147 195.474C553.866 190.239 554.418 184.317 554.793 177.703L555.189 168.828L555.543 159.932C555.569 158.489 556.34 157.838 557.855 157.974L561.064 158.369L564.293 158.682C566.762 158.849 568.908 158.63 570.73 158.015C571.84 157.64 572.423 158.135 572.48 159.494L572.751 165.161L573.043 170.786V179.015C573.126 182.171 573.428 184.88 573.96 187.14L574.043 187.661L574.126 188.286C574.251 188.692 574.47 188.838 574.793 188.724C575.137 188.572 575.569 188.468 576.085 188.411L577.397 188.286C578.465 188.135 579.277 187.724 579.835 187.057C580.47 186.255 581.283 185.817 582.272 185.744C584.423 185.635 585.757 184.505 586.272 182.349C587.116 178.724 587.803 174.26 588.335 168.953L589.293 158.244C589.585 154.286 589.73 150.734 589.73 147.578C589.757 139.651 588.882 132.536 587.105 126.244Z" fill="#400000"/>
<path d="M619.24 150.828C618.865 152.052 618.542 153.447 618.282 155.015L617.761 159.161L617.448 162.286C617.308 163.484 617.136 164.531 616.927 165.432L616.802 166.39C616.745 166.88 616.959 167.119 617.448 167.119C617.823 167.119 618.203 167.078 618.594 166.994L622.677 166.078C623.552 165.869 623.87 165.302 623.636 164.369L623.24 162.994L622.073 159.453L621.157 156.453L620.198 153.411L619.761 152.14L619.24 150.828ZM598.948 198.515L598.99 197.078C598.959 196.494 598.99 195.843 599.073 195.119C599.198 194.359 599.261 193.599 599.261 192.849C599.162 190.796 599.391 187.776 599.948 183.786L600.469 179.265L600.99 174.078L601.511 168.953L601.782 167.244L602.032 165.557L602.552 160.244L603.136 154.89L603.469 152.015L603.865 149.099L604.219 146.39L604.615 143.703C604.907 141.552 605.063 139.755 605.094 138.307L605.219 137.244L605.386 136.203L606.052 130.724C606.136 129.906 606.48 129.401 607.094 129.203C607.927 128.885 608.636 128.26 609.219 127.328L609.49 126.974L609.74 126.682C610.058 126.364 610.349 126.317 610.615 126.536C610.907 126.744 611.344 126.968 611.927 127.203L612.615 127.453L613.219 127.807C613.771 128.182 614.448 128.385 615.24 128.411C617.157 128.442 618.573 129.515 619.49 131.64C620.683 134.338 621.99 138.239 623.407 143.349L624.282 146.307L625.073 149.265L625.511 150.536L625.948 151.744L626.761 154.286L627.594 156.849C628.287 158.932 628.792 160.64 629.115 161.974C629.407 163.057 629.844 164.161 630.427 165.286L631.032 166.807L631.552 168.349L633.74 173.786L633.99 174.307L634.136 174.828C634.188 175.703 634.417 176.661 634.823 177.703L635.344 179.015L635.948 180.349C636.474 181.463 637.032 182.765 637.615 184.265L639.052 188.244C639.511 189.484 640.058 190.828 640.698 192.286C641.073 193.161 641.334 194.093 641.49 195.078C641.542 195.484 641.542 195.911 641.49 196.369C641.334 197.484 640.698 198.119 639.573 198.286C639.073 198.385 638.688 198.239 638.427 197.849L637.386 196.432L636.344 194.994C635.511 193.859 634.886 192.838 634.469 191.932L632.782 188.453L631.115 184.974C629.907 182.307 628.917 179.927 628.157 177.828L627.032 174.599L625.907 171.39L625.761 170.953L625.594 170.474C625.386 169.947 624.959 169.734 624.323 169.828C621.974 170.151 620.094 170.218 618.677 170.036C617.688 169.901 617.037 169.953 616.719 170.203C616.396 170.468 616.162 171.093 616.011 172.078L613.323 189.057L612.886 191.161L611.886 195.411C611.355 198.036 610.584 200.099 609.573 201.599C609.308 202 609.105 202.567 608.969 203.307C608.787 204.234 608.188 205.078 607.177 205.828C606.162 206.546 605.177 206.88 604.219 206.828L602.136 206.744C601.578 206.77 601.052 206.625 600.552 206.307L599.948 205.828L599.344 205.265C598.761 204.708 598.495 203.911 598.552 202.869L598.948 198.515Z" fill="#400000"/>
<path d="M666.467 151.974L666.508 153.536C666.55 153.994 666.639 154.447 666.779 154.89C666.915 155.406 667.238 155.567 667.738 155.369L669.175 154.765L670.571 154.057C671.613 153.531 672.467 152.932 673.133 152.265C674.034 151.432 674.54 150.494 674.654 149.453C674.915 147.01 674.821 144.859 674.363 142.994C673.571 140.036 671.852 137.703 669.217 135.994C668.467 135.526 667.758 135.432 667.092 135.724L666.613 135.911L666.092 136.078C665.675 136.218 665.477 136.526 665.508 136.994L666.217 146.744L666.508 151.974H666.467ZM667.133 168.203C666.55 172.036 666.326 175.322 666.467 178.057C666.493 178.838 666.425 179.76 666.258 180.828C666.102 181.703 666.05 182.677 666.092 183.744L665.988 186.849L665.821 189.849L665.738 202.599C665.738 204 665.534 205.13 665.133 205.994L664.779 206.786L664.467 207.619C664.227 208.286 663.988 208.807 663.738 209.182L663.383 209.703L663.029 210.182C662.415 210.875 661.68 211.036 660.821 210.661L658.383 209.536L655.946 208.39C654.321 207.666 653.389 206.291 653.154 204.265L652.842 200.828L652.55 197.682L652.363 194.557L652.238 191.849L651.925 189.161L650.967 180.661C650.8 179.244 650.654 177.474 650.529 175.349L650.196 170.078C649.956 166.661 649.852 162.671 649.883 158.099L650.05 146.182L650.196 138.64L650.321 131.161C650.347 129.651 650.769 128.401 651.592 127.411C652.284 126.567 653.123 126.14 654.113 126.14C655.363 126.182 656.29 126.26 656.904 126.369L658.946 126.765L660.988 127.203C661.805 127.369 662.415 127.864 662.821 128.682C663.404 129.864 663.977 130.734 664.55 131.286L664.821 131.64L664.988 132.036C665.363 132.786 665.972 133.072 666.821 132.89L667.175 132.849L667.508 132.765C668.909 132.281 670.394 132.531 671.967 133.515C673.467 134.447 675.144 136.26 677.008 138.953C678.368 140.901 679.206 142.859 679.529 144.828C679.972 147.494 679.571 150.026 678.321 152.411C678.055 152.927 677.618 153.531 677.008 154.224L676.321 155.099L675.654 156.015C675.363 156.421 674.852 156.796 674.133 157.14L673.008 157.619C672.31 157.984 672.139 158.494 672.488 159.161L673.529 161.328L674.654 163.515L676.133 165.911L677.613 168.244L677.967 168.765L678.279 169.244C679.264 171.078 680.597 173.317 682.279 175.953L684.321 179.224L686.404 182.494L687.113 183.494C687.831 184.427 688.618 185.546 689.467 186.849L691.675 190.286L694.383 194.557C694.935 195.421 695.404 196.359 695.779 197.369C696.206 198.567 696.264 199.52 695.946 200.244C695.831 200.562 695.821 200.895 695.904 201.244C696.014 201.713 695.998 202.213 695.863 202.744L695.654 203.432L695.383 204.119C695.3 204.38 695.097 204.578 694.779 204.703C693.988 205.02 693.493 205.145 693.3 205.078C693.06 205.02 692.696 204.661 692.196 203.994L691.425 202.828C691.076 202.161 690.597 201.588 689.988 201.119C689.321 200.604 688.706 199.911 688.154 199.036L686.154 195.994L685.508 195.161C684.685 194.286 683.727 193.114 682.633 191.64L681.279 189.807L679.925 188.015C677.868 185.432 676.284 183.276 675.175 181.536L673.258 178.619L671.3 175.744C670.227 174.177 669.284 172.505 668.467 170.724L667.863 169.474L667.133 168.203Z" fill="#400000"/>
<path d="M724.902 150.828C724.527 152.052 724.204 153.447 723.944 155.015L723.423 159.161L723.11 162.286C722.97 163.484 722.798 164.531 722.59 165.432L722.465 166.39C722.407 166.88 722.621 167.119 723.11 167.119C723.485 167.119 723.866 167.078 724.256 166.994L728.34 166.078C729.215 165.869 729.532 165.302 729.298 164.369L728.902 162.994L727.735 159.453L726.819 156.453L725.86 153.411L725.423 152.14L724.902 150.828ZM704.61 198.515L704.652 197.078C704.621 196.494 704.652 195.843 704.735 195.119C704.86 194.359 704.923 193.599 704.923 192.849C704.824 190.796 705.053 187.776 705.61 183.786L706.131 179.265L706.652 174.078L707.173 168.953L707.444 167.244L707.694 165.557L708.215 160.244L708.798 154.89L709.131 152.015L709.527 149.099L709.881 146.39L710.277 143.703C710.569 141.552 710.725 139.755 710.756 138.307L710.881 137.244L711.048 136.203L711.715 130.724C711.798 129.906 712.142 129.401 712.756 129.203C713.59 128.885 714.298 128.26 714.881 127.328L715.152 126.974L715.402 126.682C715.72 126.364 716.012 126.317 716.277 126.536C716.569 126.744 717.006 126.968 717.59 127.203L718.277 127.453L718.881 127.807C719.433 128.182 720.11 128.385 720.902 128.411C722.819 128.442 724.235 129.515 725.152 131.64C726.345 134.338 727.652 138.239 729.069 143.349L729.944 146.307L730.735 149.265L731.173 150.536L731.61 151.744L732.423 154.286L733.256 156.849C733.949 158.932 734.454 160.64 734.777 161.974C735.069 163.057 735.506 164.161 736.09 165.286L736.694 166.807L737.215 168.349L739.402 173.786L739.652 174.307L739.798 174.828C739.85 175.703 740.079 176.661 740.485 177.703L741.006 179.015L741.61 180.349C742.137 181.463 742.694 182.765 743.277 184.265L744.715 188.244C745.173 189.484 745.72 190.828 746.36 192.286C746.735 193.161 746.996 194.093 747.152 195.078C747.204 195.484 747.204 195.911 747.152 196.369C746.996 197.484 746.36 198.119 745.235 198.286C744.735 198.385 744.35 198.239 744.09 197.849L743.048 196.432L742.006 194.994C741.173 193.859 740.548 192.838 740.131 191.932L738.444 188.453L736.777 184.974C735.569 182.307 734.579 179.927 733.819 177.828L732.694 174.599L731.569 171.39L731.423 170.953L731.256 170.474C731.048 169.947 730.621 169.734 729.985 169.828C727.637 170.151 725.756 170.218 724.34 170.036C723.35 169.901 722.699 169.953 722.381 170.203C722.058 170.468 721.824 171.093 721.673 172.078L718.985 189.057L718.548 191.161L717.548 195.411C717.017 198.036 716.246 200.099 715.235 201.599C714.97 202 714.767 202.567 714.631 203.307C714.449 204.234 713.85 205.078 712.84 205.828C711.824 206.546 710.84 206.88 709.881 206.828L707.798 206.744C707.241 206.77 706.715 206.625 706.215 206.307L705.61 205.828L705.006 205.265C704.423 204.708 704.157 203.911 704.215 202.869L704.61 198.515Z" fill="#400000"/>
<path d="M774.442 179.619C774.358 183.619 772.66 187.453 769.358 191.119C769.233 191.234 769.139 191.39 769.087 191.599C769.03 191.796 769.03 191.932 769.087 192.015C769.197 192.224 769.358 192.302 769.567 192.244L769.879 192.119L770.129 191.974L772.796 190.64C773.837 190.114 774.692 189.619 775.358 189.161C780.702 185.468 785.139 180.546 788.671 174.39C793.639 165.713 795.447 157.427 794.087 149.536C793.129 144.109 789.452 138.286 783.067 132.078L780.879 129.89C780.014 129.057 779.264 128.38 778.629 127.849C776.848 126.364 775.067 125.349 773.275 124.807L772.921 124.661L772.608 124.453C772.317 124.343 772.072 124.369 771.879 124.536C771.697 124.718 771.634 124.953 771.692 125.244L771.796 125.619L771.921 125.974L772.796 129.411L773.712 132.849C774.348 135.531 774.754 137.859 774.921 139.828C775.473 146.843 775.593 153.474 775.275 159.724L775.192 164.515L775.233 169.39C775.233 173.39 774.968 176.802 774.442 179.619ZM801.921 163.932C801.129 169.682 797.442 176.218 790.858 183.536C787.634 187.109 783.702 189.984 779.067 192.161C776.41 193.369 773.046 194.109 768.962 194.369H768.442L767.879 194.411C767.431 194.484 767.181 194.656 767.129 194.932C766.78 196.338 765.926 197.182 764.567 197.474L763.692 197.64L762.775 197.724C762.025 197.807 761.442 197.942 761.025 198.119C759.468 198.812 758.41 198.755 757.858 197.953C757.619 197.661 757.447 197.213 757.337 196.599L757.212 195.765L757.025 194.932C756.593 192.474 756.447 189.515 756.587 186.057L756.858 181.619L757.108 177.182C757.317 172.656 757.389 167.505 757.337 161.724L756.983 146.265C756.952 144.349 756.837 142.031 756.629 139.307L756.108 132.328C755.702 126.651 755.634 121.989 755.9 118.349C755.952 117.338 756.259 116.817 756.817 116.786C758.384 116.734 759.343 115.734 759.692 113.786L759.775 113.349L759.9 112.911C760.051 112.593 760.317 112.432 760.692 112.432C761.035 112.432 761.296 112.578 761.462 112.869L761.608 113.307L761.692 113.786C761.91 115.203 762.796 116.072 764.337 116.39C765.322 116.63 766.296 117.119 767.254 117.869C767.889 118.343 768.692 119.114 769.65 120.182C770.259 120.822 771.03 121.218 771.962 121.369L775.358 121.974L778.712 122.703C781.181 123.286 783.343 124.015 785.192 124.89C786.358 125.447 787.535 126.406 788.733 127.765L790.171 129.494C790.712 130.161 791.202 130.703 791.65 131.119C798.442 137.536 801.973 147.088 802.254 159.765V161.974C802.223 162.796 802.113 163.447 801.921 163.932Z" fill="#400000"/>
<path d="M852.067 142.828C844.202 140.828 836.931 140.432 830.254 141.64C828.338 142.005 827.098 141.296 826.546 139.515L826.025 137.599L825.379 133.994L824.734 130.328C824.202 127.453 823.515 125.088 822.671 123.224C822.213 122.182 822.619 121.635 823.9 121.578L826.379 121.536L828.859 121.453C830.744 121.328 832.369 121.052 833.734 120.619L834.296 120.494L834.879 120.307C835.28 120.14 835.452 119.822 835.4 119.349C835.343 118.921 835.093 118.651 834.65 118.536L834.088 118.411H833.484L815.984 117.744C815.192 117.744 814.379 118.213 813.546 119.14C812.697 120.046 812.275 120.911 812.275 121.744L812.4 127.974L812.546 134.203C812.629 139.109 812.593 143.26 812.442 146.661C812.327 149.859 812.39 153.588 812.629 157.849L812.921 163.411L813.275 168.994C813.859 178.317 813.786 185.76 813.067 191.328C812.676 193.567 813.588 195.484 815.796 197.078C817.973 198.645 820.129 199.005 822.254 198.161C826.546 196.427 832.9 195.296 841.317 194.765L843.15 194.682L844.963 194.64C846.39 194.515 847.598 194.224 848.588 193.765L848.984 193.557L849.379 193.286C849.598 193.052 849.681 192.776 849.629 192.453C849.546 192.135 849.359 191.89 849.067 191.724C848.775 191.546 848.484 191.484 848.192 191.536C847.15 191.718 845.963 191.765 844.629 191.682L841.004 191.328C837.963 191.01 835.567 191.13 833.817 191.682C832.4 192.14 831.994 191.651 832.609 190.203C833.619 187.786 834.025 185.26 833.817 182.619L833.567 178.224L833.338 173.828L833.171 171.036L833.004 168.286C832.822 166.151 832.426 164.364 831.817 162.932C830.926 160.849 830.26 158.411 829.817 155.619L829.379 151.89L829.046 148.14C828.947 146.974 829.442 146.38 830.525 146.349C831.734 146.349 833.504 146.234 835.838 145.994L838.484 145.786L841.15 145.661H846.546C848.655 145.635 850.452 145.427 851.942 145.036C852.744 144.817 853.181 144.505 853.254 144.099C853.338 143.682 853.234 143.38 852.942 143.182L852.504 142.953L852.067 142.828Z" fill="#400000"/>
<path d="M897.039 169.869C897.164 170.067 897.31 170.307 897.477 170.599L897.914 171.474C898.315 172.255 898.648 172.906 898.914 173.432C899.789 175.088 900.529 176.578 901.143 177.911C902.878 181.901 903.789 185.281 903.872 188.057V188.411C903.872 195.468 898.648 198.994 888.206 198.994C886.924 198.994 885.581 198.932 884.164 198.807L883.685 198.765C878.518 198.364 874.445 196.765 871.477 193.974C869.419 192.099 867.539 189.099 865.831 184.974C865.19 183.489 864.607 181.76 864.081 179.786L863.518 177.182L862.956 174.474L862.872 174.182L862.768 173.828V173.557C862.768 173.39 862.789 173.234 862.831 173.078C862.966 172.468 863.518 172.109 864.477 171.994H864.685C865.393 171.994 865.904 172.26 866.227 172.786C866.336 172.984 866.435 173.239 866.518 173.557L866.706 173.953L866.831 174.265C867.232 175.364 867.794 176.927 868.518 178.953L869.31 181.265L870.143 183.661C871.904 188.109 874.294 191.359 877.31 193.411C878.268 194.026 879.258 194.552 880.289 194.994C881.44 195.427 882.497 195.64 883.456 195.64H883.622C887.607 195.531 889.602 193.744 889.602 190.286V189.682C889.279 184.63 885.289 175.828 877.622 163.286C877.008 162.359 876.039 160.614 874.706 158.057C873.19 155.281 871.685 152.427 870.185 149.494C866.169 141.536 863.747 136.078 862.914 133.119C862.357 131.093 862.081 129.244 862.081 127.578C862.081 123.369 863.836 120.224 867.352 118.14C870.195 116.489 873.737 115.661 877.977 115.661C879.253 115.661 880.586 115.734 881.977 115.869C884.294 116.135 886.253 117.036 887.852 118.578C891.195 121.744 893.232 126.156 893.956 131.807L893.997 132.036V132.286C894.023 132.369 894.039 132.463 894.039 132.557C894.039 132.64 894.023 132.724 893.997 132.807C893.815 133.255 893.44 133.474 892.872 133.474H892.768C892.419 133.474 892.148 133.328 891.956 133.036C891.883 132.942 891.836 132.796 891.81 132.599L891.727 132.369L891.685 132.203C891.518 131.703 891.331 131.078 891.122 130.328L890.643 128.411C890.211 126.942 889.716 125.724 889.164 124.765C888.581 123.781 887.81 122.703 886.852 121.536C884.878 119.593 882.372 118.515 879.331 118.307C878.982 118.281 878.628 118.265 878.268 118.265C877.57 118.265 876.893 118.328 876.227 118.453C875.878 118.51 875.529 118.567 875.185 118.619C875.07 118.651 874.956 118.677 874.831 118.703L874.706 118.744H874.622C873.341 119.192 872.414 119.932 871.831 120.974C871.565 121.463 871.435 121.968 871.435 122.494C871.435 122.953 871.565 123.421 871.831 123.89L873.018 125.682L874.185 127.453C875.086 128.859 875.81 130.031 876.352 130.974C877.06 132.322 877.987 134.13 879.143 136.39L880.539 139.078L881.935 141.786L887.643 152.307L893.352 162.89L895.206 166.39C895.966 167.755 896.581 168.911 897.039 169.869Z" fill="#400000"/>
</svg>
