<svg width="1311" height="294" viewBox="0 0 1311 294" fill="none" xmlns="http://www.w3.org/2000/svg">
<mask id="mask0_5_388" style="mask-type:luminance" maskUnits="userSpaceOnUse" x="5" y="11" width="276" height="218">
<path d="M5 11.3333H281V228.667H5V11.3333Z" fill="white"/>
</mask>
<g mask="url(#mask0_5_388)">
<mask id="mask1_5_388" style="mask-type:luminance" maskUnits="userSpaceOnUse" x="-3" y="-26" width="1353" height="354">
<path d="M-2.95312 -1.46355L1343.73 -25.9948L1349.72 302.688L3.03125 327.214L-2.95312 -1.46355Z" fill="white"/>
</mask>
<g mask="url(#mask1_5_388)">
<mask id="mask2_5_388" style="mask-type:luminance" maskUnits="userSpaceOnUse" x="-3" y="-26" width="1353" height="354">
<path d="M-2.95312 -1.46355L1343.73 -25.9948L1349.72 302.688L3.03125 327.214L-2.95312 -1.46355Z" fill="white"/>
</mask>
<g mask="url(#mask2_5_388)">
<path d="M280.193 65.7135C280.193 65.7135 150.677 -4.36459 18.0573 14.6719C18.0573 14.6719 80.5417 55.9948 90.2136 98.5573C90.2136 98.5573 43.6094 113.937 6.15106 143.13C6.15106 143.13 242.906 185.677 265.323 228.052L280.193 65.7135Z" fill="#E1CB73"/>
</g>
</g>
</g>
<mask id="mask3_5_388" style="mask-type:luminance" maskUnits="userSpaceOnUse" x="0" y="11" width="287" height="228">
<path d="M0 11H286.667V239H0V11Z" fill="white"/>
</mask>
<g mask="url(#mask3_5_388)">
<mask id="mask4_5_388" style="mask-type:luminance" maskUnits="userSpaceOnUse" x="-3" y="-21" width="1354" height="354">
<path d="M-2.61981 3.53645L1344.07 -20.9948L1350.06 307.688L3.36456 332.214L-2.61981 3.53645Z" fill="white"/>
</mask>
<g mask="url(#mask4_5_388)">
<mask id="mask5_5_388" style="mask-type:luminance" maskUnits="userSpaceOnUse" x="-3" y="-21" width="1354" height="354">
<path d="M-2.61981 3.53645L1344.07 -20.9948L1350.06 307.688L3.36456 332.214L-2.61981 3.53645Z" fill="white"/>
</mask>
<g mask="url(#mask5_5_388)">
<path d="M280.526 70.7135L282.984 66.1562C282.807 66.0521 256.51 51.8385 215.432 37.8802C174.354 23.9219 118.479 10.1927 59.0104 11.276C45.3594 11.526 31.5364 12.5469 17.651 14.5417C15.5208 14.849 13.7969 16.4479 13.3333 18.5365C12.8594 20.6354 13.7344 22.8229 15.526 24.0052L15.6771 24.1094C17.375 25.2292 32.8229 35.7396 48.8594 50.9062C56.8698 58.4844 65.026 67.224 71.651 76.4479C78.2969 85.6719 83.375 95.3698 85.4948 104.703L90.5469 103.557L88.9219 98.6302C88.6406 98.7604 41.6927 114.172 3.29164 144.042C1.68227 145.297 0.947894 147.38 1.44268 149.37C1.93748 151.359 3.54685 152.87 5.56248 153.224C5.56768 153.234 6.47394 153.396 8.19269 153.714C21.1771 156.115 79.9583 167.276 137.974 182.766C166.964 190.484 195.776 199.318 218.417 208.578C229.74 213.203 239.521 217.943 246.911 222.604C250.615 224.927 253.708 227.234 256.099 229.432C258.49 231.615 260.146 233.703 261.083 235.469C262.161 237.505 264.422 238.583 266.682 238.135C268.943 237.677 270.625 235.813 270.823 233.526L285.682 71.1875C285.875 69.1146 284.812 67.1354 282.984 66.1562L280.526 70.7135L275.359 70.2396L260.505 232.578L265.656 233.052L270.245 230.62C268.443 227.219 265.781 224.161 262.51 221.24C256.349 215.771 247.896 210.714 237.693 205.771C219.859 197.151 196.656 189 171.766 181.526C97.1771 159.156 7.49998 143.047 7.3906 143.021L6.48435 148.13L9.66664 152.219C27.9219 137.99 48.625 126.984 64.7239 119.615C72.7708 115.917 79.6771 113.13 84.5312 111.26C86.9739 110.323 88.9062 109.625 90.2031 109.156C90.8646 108.927 91.3594 108.755 91.6927 108.641C92.0312 108.526 92.1771 108.484 92.1771 108.484C94.7135 107.641 96.1927 105.01 95.6041 102.411C92.9479 90.7656 86.8594 79.6667 79.3646 69.4323C68.1354 54.0937 53.6719 40.6771 41.9739 30.9948C30.2812 21.3333 21.3541 15.4167 21.2448 15.3542L18.3906 19.6719L19.1198 24.8073C32.5521 22.8854 45.9531 21.8854 59.1979 21.6458C116.937 20.5781 171.766 33.9896 212.099 47.6927C232.25 54.5469 248.797 61.4583 260.266 66.651C265.995 69.25 270.464 71.4219 273.49 72.9323C275.005 73.6875 276.161 74.276 276.927 74.6823C277.307 74.875 277.594 75.0312 277.786 75.125L278.057 75.2656L280.526 70.7135Z" fill="#393536"/>
</g>
</g>
</g>
<mask id="mask6_5_388" style="mask-type:luminance" maskUnits="userSpaceOnUse" x="1027" y="5" width="279" height="226">
<path d="M1027 5.33334H1305.67V230.667H1027V5.33334Z" fill="white"/>
</mask>
<g mask="url(#mask6_5_388)">
<mask id="mask7_5_388" style="mask-type:luminance" maskUnits="userSpaceOnUse" x="-39" y="-10" width="1354" height="354">
<path d="M-38.2865 15.2031L1308.4 -9.32811L1314.39 319.354L-32.3021 343.88L-38.2865 15.2031Z" fill="white"/>
</mask>
<g mask="url(#mask7_5_388)">
<mask id="mask8_5_388" style="mask-type:luminance" maskUnits="userSpaceOnUse" x="-39" y="-10" width="1354" height="354">
<path d="M-38.2865 15.2031L1308.4 -9.32811L1314.39 319.354L-32.3021 343.88L-38.2865 15.2031Z" fill="white"/>
</mask>
<g mask="url(#mask8_5_388)">
<path d="M1028.2 68.1094C1028.2 68.1094 1155.06 -6.6354 1288.3 7.56251C1288.3 7.56251 1227.35 51.1302 1219.23 94.0156C1219.23 94.0156 1266.37 107.693 1304.88 135.495C1304.88 135.495 1069.82 186.641 1048.96 229.802L1028.2 68.1094Z" fill="#E1CB73"/>
</g>
</g>
</g>
<mask id="mask9_5_388" style="mask-type:luminance" maskUnits="userSpaceOnUse" x="1023" y="0" width="288" height="236">
<path d="M1023 0H1311V236H1023V0Z" fill="white"/>
</mask>
<g mask="url(#mask9_5_388)">
<mask id="mask10_5_388" style="mask-type:luminance" maskUnits="userSpaceOnUse" x="-39" y="-10" width="1354" height="354">
<path d="M-38.2865 15.2031L1308.4 -9.32812L1314.39 319.354L-32.3021 343.88L-38.2865 15.2031Z" fill="white"/>
</mask>
<g mask="url(#mask10_5_388)">
<mask id="mask11_5_388" style="mask-type:luminance" maskUnits="userSpaceOnUse" x="-39" y="-10" width="1354" height="354">
<path d="M-38.2865 15.2031L1308.4 -9.32812L1314.39 319.354L-32.3021 343.88L-38.2865 15.2031Z" fill="white"/>
</mask>
<g mask="url(#mask11_5_388)">
<path d="M1028.2 68.1094L1030.83 72.5729L1031.09 72.4219C1033.96 70.7604 1060.09 55.875 1099.52 41.1927C1138.94 26.5 1191.65 12.0208 1247.58 11.0156C1260.84 10.776 1274.27 11.2865 1287.75 12.7135L1288.3 7.56249L1285.28 3.34895C1285.15 3.45833 1269.72 14.474 1253.15 31.0365C1244.85 39.3281 1236.28 49.0052 1229.17 59.5104C1222.05 70.0104 1216.37 81.3229 1214.14 93.0573C1213.65 95.6875 1215.22 98.25 1217.79 99C1217.79 99 1217.93 99.0365 1218.28 99.1406C1223.31 100.641 1266.65 114.25 1301.84 139.698L1304.88 135.495L1303.78 130.427C1303.69 130.443 1244.86 143.25 1183.26 161.495C1152.46 170.615 1120.98 181.104 1095.67 192.099C1083.01 197.62 1071.91 203.25 1063.1 209.016C1058.69 211.922 1054.85 214.839 1051.68 217.88C1048.51 220.922 1045.96 224.078 1044.29 227.552L1048.96 229.802L1054.09 229.141L1033.35 67.4531L1028.2 68.1094L1023.05 68.7708L1043.81 230.464C1044.09 232.74 1045.84 234.542 1048.12 234.922C1050.4 235.286 1052.61 234.125 1053.61 232.052C1054.54 230.13 1056.28 227.818 1058.86 225.38C1063.65 220.771 1071.26 215.714 1080.77 210.693C1097.43 201.854 1119.95 192.979 1144.25 184.719C1180.69 172.318 1221.18 161.26 1252.49 153.318C1268.16 149.344 1281.55 146.156 1291 143.958C1295.73 142.859 1299.47 142.01 1302.04 141.437C1304.61 140.865 1305.97 140.568 1305.97 140.557C1307.97 140.125 1309.53 138.557 1309.95 136.552C1310.37 134.547 1309.56 132.495 1307.91 131.297C1268.46 102.844 1220.97 89.151 1220.68 89.0365L1219.23 94.0156L1224.33 94.9792C1226.15 85.2604 1231.14 75.0573 1237.74 65.3229C1247.64 50.7031 1261.09 37.224 1272.04 27.4792C1277.52 22.6094 1282.36 18.6615 1285.82 15.9531C1287.55 14.5937 1288.94 13.5469 1289.89 12.8385C1290.36 12.4792 1290.72 12.2135 1290.96 12.0365L1291.32 11.7865C1293.07 10.526 1293.86 8.33853 1293.31 6.23958C1292.77 4.15624 1290.99 2.63541 1288.85 2.40624C1274.91 0.91666 1261.04 0.401034 1247.39 0.645826C1187.94 1.72916 1132.6 17.4844 1092.06 32.9323C1051.5 48.375 1025.76 63.5365 1025.57 63.651C1023.78 64.6927 1022.79 66.7135 1023.05 68.7708L1028.2 68.1094Z" fill="#393536"/>
</g>
</g>
</g>
<mask id="mask12_5_388" style="mask-type:luminance" maskUnits="userSpaceOnUse" x="192" y="54" width="970" height="239">
<path d="M192 54H1161.33V292.667H192V54Z" fill="white"/>
</mask>
<g mask="url(#mask12_5_388)">
<mask id="mask13_5_388" style="mask-type:luminance" maskUnits="userSpaceOnUse" x="-2" y="-44" width="1354" height="354">
<path d="M-1.28644 -18.7969L1345.4 -43.3281L1351.39 285.354L4.69794 309.88L-1.28644 -18.7969Z" fill="white"/>
</mask>
<g mask="url(#mask13_5_388)">
<mask id="mask14_5_388" style="mask-type:luminance" maskUnits="userSpaceOnUse" x="-2" y="-44" width="1354" height="354">
<path d="M-1.28644 -18.7969L1345.4 -43.3281L1351.39 285.354L4.69794 309.88L-1.28644 -18.7969Z" fill="white"/>
</mask>
<g mask="url(#mask14_5_388)">
<path d="M675.078 126.526C539.172 130.526 390.969 113.063 206.188 71.1198L192.578 231.208C192.578 231.208 421.51 293.74 678.094 292.089C934.563 284.396 1161.07 213.568 1161.07 213.568L1141.65 54.0833C958.51 102.729 811.052 125.573 675.078 126.526Z" fill="#E1CB73"/>
</g>
</g>
</g>
<mask id="mask15_5_388" style="mask-type:luminance" maskUnits="userSpaceOnUse" x="187" y="44" width="980" height="250">
<path d="M187 44H1167V293.333H187V44Z" fill="white"/>
</mask>
<g mask="url(#mask15_5_388)">
<mask id="mask16_5_388" style="mask-type:luminance" maskUnits="userSpaceOnUse" x="-1" y="-48" width="1353" height="354">
<path d="M-0.953125 -23.4635L1345.73 -47.9948L1351.72 280.688L5.03125 305.214L-0.953125 -23.4635Z" fill="white"/>
</mask>
<g mask="url(#mask16_5_388)">
<mask id="mask17_5_388" style="mask-type:luminance" maskUnits="userSpaceOnUse" x="-1" y="-48" width="1353" height="354">
<path d="M-0.953125 -23.4635L1345.73 -47.9948L1351.72 280.688L5.03125 305.214L-0.953125 -23.4635Z" fill="white"/>
</mask>
<g mask="url(#mask17_5_388)">
<path d="M675.411 121.859L675.26 116.677C670.51 116.818 665.745 116.932 660.969 117.016C529.49 119.411 385.698 101.812 207.661 61.3958C206.198 61.0729 204.677 61.3854 203.464 62.2708C202.25 63.1562 201.479 64.5208 201.354 66.0208L187.745 226.099C187.516 228.599 189.125 230.88 191.542 231.552C191.802 231.599 421.047 294.245 678.453 292.609L678.589 292.604C935.896 284.87 1162.7 213.917 1162.95 213.859C1165.34 213.099 1166.85 210.76 1166.55 208.271L1147.13 48.7969C1146.95 47.3021 1146.13 45.9635 1144.89 45.125C1143.65 44.2812 1142.1 44.026 1140.65 44.4062C964.203 91.276 821.13 114.099 689.682 116.495C684.891 116.583 680.125 116.641 675.37 116.672L675.26 116.677L675.411 121.859L675.448 127.042C680.245 127.01 685.036 126.948 689.87 126.865C822.401 124.448 966.344 101.432 1143.32 54.4271L1141.98 49.4167L1136.83 50.0521L1156.26 209.521L1161.4 208.901L1159.85 203.948C1159.85 203.964 1159.01 204.219 1157.3 204.734C1131.73 212.479 917.917 275.068 678.266 282.24L678.427 287.422L678.401 282.24C550.542 283.068 429.422 267.88 340.323 252.49C295.781 244.792 259.234 237.042 233.844 231.224C221.151 228.323 211.234 225.896 204.505 224.198C201.141 223.354 198.578 222.687 196.854 222.229C195.13 221.776 194.276 221.547 194.276 221.536L192.911 226.542L198.078 226.974L211.687 66.901L206.521 66.4531L205.375 71.5156C383.927 112.042 528.609 129.797 661.156 127.385C665.974 127.297 670.781 127.182 675.557 127.042L675.411 121.859Z" fill="#393536"/>
</g>
</g>
</g>
<path d="M337.594 224.463C317.62 219.953 350.61 177.114 317.906 170.578C332.511 167.531 346.99 156.401 350.214 142.114C351.87 134.797 349.792 127.25 338.177 124.625C334.344 123.76 319.021 121.885 310.193 119.891C307.292 119.234 305.974 118.573 304.469 118.229C302.724 117.838 302.156 118.198 302 118.891C301.5 121.099 303.474 121.547 304.287 121.729C307.886 122.542 308.292 125.073 307.375 129.141C301.813 153.76 295.573 176.521 290.375 199.516C289.641 202.766 289.485 203.463 286.927 202.885C286.235 202.729 285.047 202.583 284.703 204.094C284.599 204.557 285.193 205.177 285.886 205.338C288.531 206.057 291.901 206.818 294.922 207.5L301.771 209.047C303.167 209.364 304.031 209.312 304.292 208.151C304.505 207.224 304.052 206.51 302.193 206.094C300.802 205.776 300.417 205.323 300.969 202.885C301.568 200.213 304.969 180.838 309.219 162.026C313.339 143.792 318.167 126.208 322.073 125.135C322.474 124.984 325.792 124.88 329.505 125.719C335.432 127.057 342.156 130.771 339.979 140.411C336.594 155.396 324.474 168.526 308.406 169.411C308.266 169.5 308.12 169.588 308.068 169.823C307.964 170.286 308.297 170.974 309.693 171.286C310.969 171.578 312.235 171.375 313.396 171.635C316.995 172.448 320.813 175.021 322.172 177.646C327.61 188.151 312.797 221.302 337.651 226.917C338.927 227.208 339.703 227.016 339.912 226.088C340.12 225.156 339.479 224.766 338.781 224.609C338.318 224.505 337.943 224.542 337.594 224.463Z" fill="#5D281D"/>
<path d="M414.867 139.125C414.752 139.099 414.518 139.057 414.263 139.13C411.065 139.38 407.934 139.276 405.007 138.729C402.315 138.224 399.809 137.391 397.294 135.948C396.961 135.766 396.726 135.724 396.492 135.677C395.559 135.505 394.606 136.052 394.476 136.755C394.169 138.391 396.346 139.042 396.815 139.13C399.252 139.708 399.721 141.734 399.627 143.537C399.523 144.729 399.247 146.854 398.763 149.427C396.809 159.844 392.341 178.511 391.231 183.146C390.94 184.063 390.742 185.115 390.565 186.052C385.695 184.896 381.033 183.901 376.705 183.089C371.086 182.037 366.362 181.396 362.481 180.787C364.783 168.5 371.481 135.354 374.778 135.849C376.674 136.083 380.018 136.344 380.367 134.474C380.476 133.891 380.237 133.24 378.95 132.995C378.247 132.865 375.914 133.031 371.346 132.177L368.539 131.651C362.221 130.469 360.721 130.063 359.2 129.781C358.382 129.625 357.752 129.75 357.481 130.547C357.242 131.833 357.695 132.646 358.747 132.844C359.565 132.995 360.309 132.896 360.898 133.005C362.299 133.266 362.138 135.417 361.809 137.172C360.471 144.313 351.221 184.615 346.44 208.188C345.674 212.281 344.898 215.771 340.341 215.521C339.737 215.531 339.294 215.932 339.211 216.401C339.033 217.339 339.903 217.865 340.721 218.016C341.773 218.214 342.893 218.063 343.502 218.052C344.856 217.943 347.356 218.172 350.164 218.698C356.018 219.792 360.403 221.583 360.403 221.583C361.106 221.719 361.726 220.984 361.836 220.401C362.013 219.464 360.44 218.807 359.195 218.328C355.987 217.365 357.309 207.073 358.976 198.182C360.028 192.563 361.205 187.573 361.867 184.063C365.304 184.464 369.184 185.073 372.929 185.776C379.252 186.958 385.059 188.292 389.789 189.542C386.669 203.615 382.705 221.526 380.893 222.156C380.336 222.537 377.205 222.432 376.966 223.719C376.856 224.307 377.372 224.766 377.841 224.854C378.424 224.964 383.445 224.693 393.158 226.511L395.497 226.953C396.669 227.172 397.268 226.557 397.377 225.969C397.466 225.505 397.299 225.109 396.966 224.927C395.747 224.333 393.434 224.386 393.179 222.521C393.096 221.656 393.45 217.844 394.481 212.344C398.211 192.453 408.237 150.599 409.976 145.839C410.763 143.563 411.768 141.448 414.612 141.136C414.987 141.083 415.518 140.818 415.627 140.234C415.716 139.766 415.216 139.188 414.867 139.125Z" fill="#5D281D"/>
<path d="M467.71 145.455C467.361 145.403 466.971 145.585 466.601 145.648C465.117 145.908 463.648 146.049 462.236 145.835C461.413 145.716 460.606 145.471 459.835 144.997C459.502 144.825 459.299 144.554 458.945 144.502C458.356 144.414 458.018 145.08 457.96 145.434C457.731 146.966 460.033 147.674 459.825 149.085L459.768 149.44C459.44 150.835 443.351 185.018 442.476 186.815C442.46 186.934 441.882 187.57 441.528 187.518C441.059 187.445 440.674 186.783 440.351 184.929C439.809 180.512 435.096 155.002 434.007 149.424C433.731 148.059 433.637 147.08 433.742 146.372C433.867 145.549 435.085 144.648 438.018 144.367C438.507 144.32 439.247 144.19 439.351 143.481C439.497 142.544 439.065 141.393 438.122 141.252C436.591 141.023 434.841 141.481 433.408 141.387C432.21 141.325 430.919 141.132 429.502 140.919C425.502 140.32 420.825 139.377 418.216 137.539C417.778 137.231 417.242 136.794 416.773 136.721C416.184 136.632 415.622 137.148 415.554 137.622C415.466 138.21 415.966 138.887 416.736 139.361C417.169 139.669 421.945 143.158 422.226 146.091C422.528 148.903 431.45 186.481 432.231 192.502C432.419 194.455 430.867 208.789 429.315 219.153C428.762 222.799 428.169 225.96 427.768 227.83C427.236 228.955 427.32 229.205 425.752 229.21C424.679 229.169 424.033 229.434 423.913 230.257C423.716 231.554 424.434 232.387 425.497 232.544L426.2 232.648C428.257 232.596 430.137 232.882 431.788 233.127C436.971 233.908 438.247 234.221 439.544 234.414C440.601 234.575 441.815 234.512 442.044 232.981C442.236 231.69 441.429 231.445 440.726 231.341L440.137 231.252C438.643 230.789 439.002 229.997 438.893 228.299C438.929 225.653 440.351 210.575 441.929 200.096C442.653 195.268 443.335 191.518 444.002 190.294C446.565 185.262 460.627 154.143 463.268 150.205C463.861 149.45 465.216 148.45 466.512 148.648C467.101 148.736 467.2 148.872 467.434 148.903C468.023 148.992 468.502 148.221 468.622 147.398C468.768 146.455 468.538 145.58 467.71 145.455Z" fill="#5D281D"/>
<path d="M493.806 241.865C496.65 242.193 497.004 242.235 497.218 240.339C497.327 239.396 496.291 239.037 494.988 238.886C494.16 238.792 493.322 238.813 492.494 238.719C491.666 238.625 490.837 238.531 490.52 238.136C489.238 236.787 490.353 222.896 492.145 207.281C494.306 188.474 497.619 166.922 499.202 161.469C499.613 159.958 500.166 156.188 501.598 156.235C504.936 156.375 507.556 156.557 509.801 156.813C517.374 157.682 518.879 159.172 518.525 162.25C518.337 163.906 517.499 165.969 517.311 167.625C517.186 168.688 517.041 169.99 518.697 170.177C520.468 170.38 520.155 169.985 520.988 167.927C521.801 166.099 524.775 161.047 525.171 157.62C525.374 155.844 524.931 154.474 522.921 154.245C514.572 153.886 490.936 152.011 475.916 150.287L470.712 149.693C467.515 149.323 466.535 151.61 466.212 154.448C465.978 156.458 466.051 158.985 465.817 160.995C465.738 161.703 465.405 162.505 465.296 163.453C465.176 164.516 465.843 164.953 467.145 165.099C471.405 165.589 466.322 152.422 480.988 154.104C485.723 154.651 489.468 155.438 489.072 158.87C488.952 159.932 488.681 161.219 488.374 162.865C487.77 167.11 479.817 231.151 478.91 234.886C478.39 237.339 477.39 236.625 474.869 236.698C474.145 236.735 471.53 236.552 471.322 238.328C471.27 238.802 471.374 238.932 472.306 239.162C474.421 239.521 490.39 241.354 493.806 241.865Z" fill="#5D281D"/>
<path d="M585.549 158.312C585.429 158.302 585.189 158.281 584.944 158.385C581.793 158.979 578.668 159.218 575.705 158.994C572.97 158.786 570.387 158.229 567.731 157.073C567.382 156.927 567.148 156.906 566.908 156.89C565.96 156.817 565.075 157.463 565.017 158.177C564.892 159.838 567.127 160.25 567.606 160.286C570.09 160.593 570.773 162.557 570.877 164.354C570.903 165.552 570.861 167.698 570.658 170.307C569.851 180.875 567.444 199.916 566.845 204.645C566.653 205.588 566.569 206.656 566.502 207.604C561.533 206.989 556.793 206.505 552.398 206.171C546.7 205.739 541.934 205.614 538.007 205.432C538.96 192.968 542.007 159.286 545.34 159.421C547.246 159.448 550.601 159.343 550.746 157.448C550.788 156.854 550.481 156.229 549.174 156.13C548.46 156.078 546.158 156.5 541.528 156.145L538.679 155.927C532.273 155.437 530.736 155.203 529.194 155.083C528.361 155.02 527.752 155.213 527.569 156.036C527.465 157.338 528.007 158.099 529.075 158.182C529.908 158.244 530.637 158.062 531.231 158.104C532.653 158.213 532.731 160.369 532.595 162.151C532.043 169.39 527.236 210.458 525.049 234.416C524.731 238.567 524.34 242.119 519.783 242.369C519.179 242.442 518.788 242.89 518.752 243.369C518.679 244.317 519.601 244.744 520.434 244.807C521.502 244.89 522.595 244.614 523.2 244.541C524.533 244.286 527.043 244.239 529.892 244.458C535.83 244.911 540.387 246.213 540.387 246.213C541.101 246.265 541.637 245.474 541.684 244.88C541.757 243.927 540.121 243.448 538.835 243.109C535.538 242.5 535.731 232.125 536.418 223.104C536.856 217.406 537.481 212.317 537.752 208.755C541.215 208.781 545.142 208.963 548.939 209.25C555.351 209.739 561.267 210.432 566.111 211.161C564.538 225.489 562.549 243.724 560.814 244.546C560.304 244.984 557.179 245.224 557.08 246.531C557.033 247.125 557.601 247.526 558.075 247.562C558.668 247.609 563.627 246.791 573.481 247.546L575.856 247.724C577.043 247.817 577.575 247.14 577.616 246.546C577.653 246.073 577.444 245.698 577.095 245.552C575.819 245.093 573.528 245.401 573.069 243.573C572.892 242.724 572.83 238.895 573.252 233.317C574.793 213.135 580.205 170.442 581.413 165.52C581.95 163.171 582.715 160.958 585.512 160.338C585.877 160.244 586.377 159.927 586.424 159.333C586.46 158.859 585.903 158.338 585.549 158.312Z" fill="#5D281D"/>
<path d="M598.429 173.391C599.569 174.865 607.679 240.803 608.179 246.777C608.429 249.767 608.397 250.6 613.517 250.782C617.439 250.923 619.288 249.204 619.783 245.407C620.288 241.376 631.429 183.397 633.58 173.345C632.762 196.074 632.179 218.808 631.298 243.319L631.22 245.459C631.173 246.772 631.017 247.72 629.762 249.579C629.507 250.048 629.252 250.517 629.236 250.99C629.215 251.464 629.548 252.194 630.142 252.214C630.502 252.225 630.877 251.761 631.96 251.444C633.762 250.912 635.309 250.97 636.856 251.027C639.116 251.105 641.356 251.782 643.976 251.876C645.882 251.949 647.694 251.178 647.731 250.225C647.736 249.99 647.637 249.506 647.278 249.496C646.564 249.47 645.825 250.157 644.752 250.121C643.09 250.058 643.283 247.923 643.017 245.412C642.585 240.865 642.746 219.787 643.444 200.392C644.095 182.303 645.293 165.668 647.101 165.136C648.663 164.714 649.991 164.168 650.028 163.214C650.038 162.86 649.944 162.261 649.345 162.24C647.798 162.183 645.121 163.756 641.793 163.636C639.293 163.543 636.934 162.865 633.72 162.751C631.46 162.668 630.955 163.485 630.236 166.912C628.95 172.824 618.897 233.579 617.075 234.589C615.08 220.574 613.564 206.345 611.21 192.319C609.533 182.61 607.783 175.037 608.127 165.522C608.163 164.449 608.319 163.501 608.366 162.074C608.382 161.72 608.272 161.475 607.804 161.22C607.564 161.209 607.325 161.324 607.205 161.319C603.97 161.798 601.809 162.194 599.314 162.105C596.575 162.006 591.976 160.652 591.028 160.615C590.314 160.589 590.059 160.938 589.913 161.766L589.903 162.006C589.845 163.673 594.736 163.49 595.246 165.772C594.908 175.173 589.121 233.345 588.252 241.053C587.731 245.563 588.403 246.782 584.564 247.475C583.366 247.673 581.939 247.501 581.871 249.402C581.856 249.881 581.965 250.121 582.798 250.152C583.752 250.188 585.423 250.006 587.804 250.095C590.064 250.178 591.965 250.365 593.392 250.412C593.986 250.438 595.882 250.74 595.929 249.553C595.965 248.48 595.168 247.501 592.793 247.298C591.72 247.256 591.522 246.178 591.569 244.871C591.632 243.084 597.356 183.36 598.429 173.391Z" fill="#5D281D"/>
<path d="M691.972 167.233C692.061 165.087 693.212 162.691 696.071 162.644C701.426 162.561 705.243 162.863 709.17 162.801C716.551 162.686 720.155 164.655 720.238 170.129C720.259 171.321 720.149 171.915 720.16 172.514C720.17 173.347 720.306 174.176 721.254 174.16C723.399 174.129 721.42 169.394 724.868 161.483C724.868 161.363 724.983 161.123 724.983 161.004C724.967 160.056 723.769 159.717 723.295 159.722L715.556 159.842C689.363 160.248 686.493 159.462 681.853 159.53C680.426 159.556 674.472 159.764 674.498 161.311C674.509 162.03 675.108 162.373 675.702 162.368L677.014 162.347C677.967 162.332 678.92 162.436 679.051 163.149C680.847 171.457 681.566 187.165 681.811 202.998C682.108 222.165 681.457 241.462 681.545 247.295C681.577 249.321 680.853 248.738 678.248 249.613C677.535 249.743 676.946 250.108 676.957 250.821C676.967 251.535 677.457 252.243 678.051 252.233C678.41 252.228 678.764 252.103 679.238 251.978H679.358C681.957 250.623 693.493 249.853 705.04 249.67C710.639 249.587 716.238 249.853 720.884 249.785C725.285 249.717 723.884 243.665 724.847 236.863C724.957 236.264 724.952 235.79 724.946 235.431C724.931 234.478 724.566 234.009 723.853 234.019C722.899 234.035 722.676 234.868 722.686 235.587C722.202 242.618 716.795 247.228 710.722 247.321C708.462 247.358 706.077 247.155 703.577 247.191C694.644 247.332 693.426 245.327 692.978 239.498C692.524 233.316 692.108 221.889 691.884 207.363C692.597 207.353 693.191 207.228 693.545 207.222C697.707 206.681 704.733 206.571 709.134 206.504C712.946 206.441 713.608 210.837 714.92 210.816C715.394 210.811 715.504 210.092 715.488 209.259C715.472 208.071 715.207 206.41 715.191 205.337C715.176 204.264 715.384 202.592 715.368 201.405C715.353 200.571 715.222 199.858 714.748 199.863C713.441 199.884 713.504 204.17 708.983 204.243C704.936 204.306 698.389 204.524 691.842 204.629C691.613 190.103 691.743 175.217 691.972 167.233Z" fill="#5D281D"/>
<path d="M730.623 248.174C731.508 249.325 737.665 251.08 744.566 250.778C755.982 250.273 764.534 244.174 764.024 232.637C763.133 212.533 735.847 182.872 735.425 173.356C735.118 166.455 741.618 162.476 748.519 162.169C755.894 161.846 756.92 168.95 757.071 172.398L757.149 174.064C757.201 175.257 757.935 175.7 758.529 175.674C758.883 175.658 759.232 175.403 759.222 175.163C759.477 167.408 764.149 162.554 764.081 161.007C763.993 159.106 750.425 159.465 749.472 159.507C735.675 160.117 729.498 165.992 730.107 179.788C730.946 198.82 757.295 220.658 757.993 236.361C758.274 242.783 753.956 247.622 747.3 247.913C742.659 248.122 737.571 246.2 737.305 240.252C737.175 237.278 737.993 234.262 737.847 230.934C737.816 230.221 737.54 229.398 736.826 229.429C736.711 229.434 736.472 229.445 736.238 229.575C734.482 230.247 734.67 237.268 733.56 241.846C732.665 245.82 730.597 247.58 730.618 248.054L730.623 248.174Z" fill="#5D281D"/>
<path d="M801.771 172.617C801.839 173.57 802.573 173.878 803.167 173.836C803.76 173.794 804.214 173.404 804.172 172.81C804.578 166.695 804.224 161.586 807.438 156.346C807.547 156.221 807.656 156.096 807.641 155.857C807.625 155.617 807.49 155.388 807.354 155.159C807.229 155.049 805.682 155.159 803.547 155.31C799.271 155.607 792.984 156.164 792.031 156.232C770.057 157.763 766.922 189.732 768.198 208.023C769.224 222.753 773.51 248.232 790.615 247.039C804.036 246.101 806.646 232.195 805.823 220.435C805.75 219.367 805.115 218.815 804.401 218.862C803.807 218.904 803.24 219.305 803.177 220.143C802.766 227.93 803.099 242.945 793.005 243.648C785.521 244.169 780.807 226.242 779.464 206.997C778.177 188.586 777.661 160.695 793.104 159.617C796.906 159.351 801.099 161.325 801.688 169.758C801.75 170.591 801.698 171.549 801.771 172.617Z" fill="#5D281D"/>
<path d="M812.705 212.279C812.814 213.346 813.335 213.768 814.163 213.685C814.523 213.648 815.09 213.352 815.788 213.164C816.486 212.971 817.408 212.638 818.465 212.409C819.111 224.674 819.601 235.393 818.523 242.445C818.09 245.242 816.221 246.867 816.304 247.695C816.366 248.289 816.616 248.383 817.09 248.336C817.919 248.253 819.148 247.409 819.471 247.018C821.075 245.174 823.372 241.831 824.924 234.732C826.377 227.883 826.507 219.732 826.257 211.378L826.731 211.331C831.111 210.888 835.507 210.56 838.231 210.284C841.903 209.909 845.814 209.513 849.934 208.852C850.377 217.904 850.887 226.466 851.757 234.997C851.95 236.893 851.919 238.93 851.387 240.779C851.09 241.409 849.929 241.763 849.695 241.789C849.127 242.086 848.809 242.477 848.856 242.95C848.929 243.659 849.58 244.195 850.174 244.133C850.648 244.086 851.674 243.622 852.945 243.133C856.07 242.096 859.351 241.404 862.429 241.091C863.851 240.945 865.294 241.039 867.346 241.19C868.528 241.07 869.064 240.419 868.965 239.471C868.872 238.523 866.502 238.763 866.148 238.799L865.314 238.883C864.726 238.945 864.82 238.695 864.46 237.534C863.278 232.987 861.122 217.648 860.195 208.529C859.919 205.805 859.757 203.065 859.601 200.331C859.236 194.383 857.247 158.325 857.715 155.883C857.783 155.398 858.695 154.945 861.809 153.789C862.393 153.612 862.663 152.747 862.59 152.034C862.518 151.325 862.101 150.768 861.486 150.591C860.773 150.664 860.429 150.82 860.215 151.081C857.616 153.737 854.299 154.075 851.455 154.362C842.575 155.268 834.299 152.758 825.887 153.612C819.731 154.237 812.033 158.612 811.361 164.904C811.455 165.852 811.726 166.185 812.45 166.227C813.398 166.133 813.601 165.753 813.684 165.388C814.997 159.508 821.887 156.654 826.366 155.956C820.044 165.575 819.07 171.299 818.627 176.372C817.663 188.081 818.018 199.773 818.377 210.388C817.429 210.482 816.59 210.445 815.757 210.534C814.929 210.617 812.809 210.95 812.705 212.279ZM830.127 164.669C832.57 160.471 836.429 157.211 841.049 156.737C845.669 156.268 846.382 159.789 847.528 171.039C848.851 184.07 849.429 195.617 849.934 206.461C844.044 207.419 835.788 208.617 826.195 209.591C825.564 192.779 824.018 175.227 830.127 164.669Z" fill="#5D281D"/>
<path d="M872.157 149.891C869.089 150.313 867.506 150.173 865.975 150.381C864.204 150.626 863.917 151.147 864.011 151.855C864.256 153.621 865.615 153.917 867.032 153.72C870.688 153.22 871.959 155.449 872.521 159.579C874.402 173.261 876.698 190.855 878.771 205.949C880.339 217.391 881.563 224.558 882.553 231.751C883.021 235.173 882.907 235.188 880.443 235.647L880.323 235.662C879.855 235.725 878.672 235.891 878.87 237.303C878.98 238.131 879.855 238.371 880.329 238.308C883.058 238.053 886.48 237.584 889.547 237.162L896.506 236.204C897.922 236.011 898.714 235.662 898.553 234.48C898.422 233.537 897.751 233.032 895.865 233.287C894.214 233.516 893.782 232.131 893.605 230.834C893.006 226.47 889.589 207.709 887.079 189.428C884.537 170.907 882.902 152.865 886.178 150.49C886.381 150.225 889.454 148.959 893.23 148.443C899.126 147.631 906.85 148.735 908.193 158.527C910.282 173.74 903.542 190.292 888.823 196.881C888.605 197.032 888.636 197.266 888.652 197.386C888.714 197.855 889.355 198.126 890.652 197.949C891.24 197.871 891.813 197.673 892.626 197.438C899.745 195.022 910.761 185.095 916.063 172.949C917.787 168.865 919.167 162.308 918.376 156.527C917.355 149.095 912.777 142.876 900.98 144.496C896.261 145.141 883.006 148.402 872.157 149.891Z" fill="#5D281D"/>
<path d="M926.471 198.671C926.654 199.729 927.206 200.114 928.029 199.973C928.378 199.911 928.924 199.578 929.607 199.338C930.294 199.098 931.19 198.703 932.227 198.4C933.732 210.583 934.977 221.244 934.393 228.354C934.159 231.176 932.409 232.926 932.549 233.749C932.654 234.338 932.909 234.411 933.378 234.333C934.195 234.187 935.367 233.26 935.659 232.848C937.133 230.9 939.185 227.406 940.237 220.213C941.206 213.275 940.763 205.14 939.93 196.822L940.398 196.744C944.737 195.989 949.102 195.354 951.799 194.89C955.435 194.26 959.305 193.588 963.372 192.64C964.445 201.64 965.56 210.145 967.023 218.593C967.346 220.468 967.456 222.505 967.06 224.385C966.81 225.036 965.674 225.473 965.44 225.515C964.893 225.848 964.602 226.265 964.685 226.734C964.81 227.437 965.497 227.921 966.081 227.817C966.549 227.739 967.544 227.203 968.773 226.63C971.82 225.374 975.044 224.453 978.096 223.926C979.503 223.682 980.951 223.671 983.008 223.676C984.18 223.473 984.664 222.786 984.503 221.848C984.341 220.911 981.992 221.317 981.643 221.38L980.82 221.52C980.232 221.619 980.31 221.364 979.872 220.234C978.378 215.781 975.148 200.63 973.581 191.598C973.117 188.9 972.763 186.182 972.414 183.463C971.633 177.557 967.117 141.723 967.414 139.255C967.451 138.765 968.326 138.249 971.352 136.88C971.919 136.661 972.128 135.781 972.008 135.078C971.883 134.374 971.43 133.848 970.805 133.713C970.102 133.838 969.768 134.015 969.576 134.291C967.164 137.124 963.883 137.692 961.065 138.182C952.268 139.708 943.836 137.781 935.508 139.223C929.409 140.281 922.039 145.182 921.805 151.51C921.966 152.447 922.263 152.76 922.987 152.755C923.924 152.588 924.102 152.197 924.159 151.828C925.06 145.869 931.732 142.536 936.148 141.531C930.518 151.567 929.945 157.348 929.862 162.437C929.721 174.182 930.893 185.822 931.997 196.385C931.06 196.546 930.216 196.572 929.398 196.713C928.576 196.859 926.482 197.343 926.471 198.671ZM940.508 149.958C942.654 145.598 946.273 142.072 950.846 141.281C955.424 140.489 956.383 143.947 958.315 155.093C960.549 167.994 961.935 179.479 963.201 190.255C957.393 191.624 949.242 193.395 939.742 195.046C937.93 178.317 935.159 160.916 940.508 149.958Z" fill="#5D281D"/>
<path d="M1000.18 125.66C993.767 126.994 988.304 129.957 982.475 131.171C977.694 132.166 975.778 131.712 974.048 131.587L973.814 131.634C973.116 131.78 973.001 132.41 973.1 132.879C973.22 133.462 973.736 133.598 974.085 133.525C975.84 133.765 978.34 134.098 979.444 137.64C980.762 142.228 981.97 147.447 983.137 153.046C988.84 180.436 992.126 214.9 992.83 218.28C993.121 219.681 993.736 220.89 995.137 220.598C1029.99 213.343 1030.58 175.879 1025.31 150.587C1021.94 134.384 1018.01 121.947 1000.18 125.66ZM1005.89 213.858C1005.48 214.186 1005.15 214.379 1004.8 214.452C1004.33 214.546 1004.05 214.364 1003.86 214.035C1003.72 213.337 1003.07 210.796 1002.24 206.832C998.069 186.785 987.929 132.832 993.304 130.619C994.746 129.952 996.236 129.52 997.637 129.228C1004.05 127.895 1010.36 131.322 1015.09 154.051C1018.95 172.587 1022.45 202.259 1005.89 213.858Z" fill="#5D281D"/>
<path d="M1039.52 124.943C1039.13 122.828 1039.73 120.235 1042.5 119.563C1047.71 118.302 1051.5 117.755 1055.32 116.828C1062.49 115.094 1066.44 116.224 1067.73 121.547C1068.01 122.703 1068.03 123.307 1068.17 123.891C1068.37 124.698 1068.68 125.479 1069.61 125.255C1071.69 124.75 1068.71 120.573 1070.34 112.094C1070.31 111.979 1070.37 111.719 1070.34 111.604C1070.12 110.677 1068.88 110.61 1068.42 110.724L1060.9 112.542C1035.43 118.703 1032.46 118.563 1027.95 119.656C1026.56 119.99 1020.8 121.505 1021.17 123.011C1021.33 123.703 1022 123.912 1022.57 123.771L1023.84 123.464C1024.77 123.24 1025.73 123.13 1026.01 123.797C1029.59 131.505 1033.75 146.672 1037.48 162.063C1041.98 180.693 1045.59 199.667 1046.96 205.339C1047.44 207.302 1046.61 206.891 1044.26 208.318C1043.59 208.604 1043.09 209.089 1043.26 209.787C1043.43 210.479 1044.06 211.063 1044.64 210.922C1044.99 210.839 1045.3 210.636 1045.74 210.412L1045.86 210.38C1048.09 208.495 1059.18 205.198 1070.4 202.485C1075.84 201.167 1081.37 200.198 1085.88 199.104C1090.16 198.068 1087.46 192.474 1086.91 185.625C1086.88 185.021 1086.77 184.557 1086.69 184.209C1086.46 183.287 1086 182.906 1085.31 183.073C1084.38 183.297 1084.34 184.167 1084.52 184.86C1085.59 191.828 1081.33 197.511 1075.43 198.938C1073.23 199.474 1070.86 199.802 1068.43 200.391C1059.75 202.49 1058.12 200.802 1056.4 195.214C1054.59 189.281 1051.67 178.229 1048.26 164.11C1048.95 163.943 1049.5 163.682 1049.85 163.599C1053.79 162.156 1060.62 160.505 1064.9 159.469C1068.6 158.573 1070.21 162.714 1071.49 162.406C1071.95 162.297 1071.9 161.573 1071.7 160.766C1071.42 159.604 1070.8 158.042 1070.55 157C1070.3 155.959 1070.14 154.281 1069.86 153.125C1069.66 152.318 1069.38 151.651 1068.91 151.761C1067.64 152.068 1068.65 156.235 1064.25 157.297C1060.31 158.25 1053.98 159.906 1047.62 161.448C1044.2 147.328 1041.05 132.776 1039.52 124.943Z" fill="#5D281D"/>
</svg>
