<svg xmlns="http://www.w3.org/2000/svg" xmlns:xlink="http://www.w3.org/1999/xlink" width="605" zoomAndPan="magnify" viewBox="0 0 453.75 92.249997" height="123" preserveAspectRatio="xMidYMid meet" version="1.0"><defs><g/><clipPath id="1ff71445b5"><path d="M 357 20 L 449 20 L 449 90.761719 L 357 90.761719 Z M 357 20 " clip-rule="nonzero"/></clipPath><clipPath id="1d95cb1629"><path d="M 4 20 L 96 20 L 96 90.761719 L 4 90.761719 Z M 4 20 " clip-rule="nonzero"/></clipPath></defs><g clip-path="url(#1ff71445b5)"><path fill="#f6d8c4" d="M 386.683594 20.960938 L 386.683594 75.363281 L 357.539062 90.78125 L 448.992188 90.78125 L 429.96875 55.875 L 448.992188 20.960938 L 386.683594 20.960938 " fill-opacity="1" fill-rule="nonzero"/></g><path fill="#f6d8c4" d="M 348.992188 75.953125 L 348.992188 88.511719 L 372.746094 75.953125 Z M 348.992188 75.953125 " fill-opacity="1" fill-rule="nonzero"/><path fill="#f6d8c4" d="M 380.675781 0.0234375 L 71.855469 0.0234375 L 71.855469 69.953125 L 380.675781 69.953125 L 380.675781 0.0234375 " fill-opacity="1" fill-rule="nonzero"/><g clip-path="url(#1d95cb1629)"><path fill="#f6d8c4" d="M 65.855469 75.953125 L 65.855469 20.960938 L 4.457031 20.980469 L 23.480469 55.875 L 4.472656 90.796875 L 95.882812 90.769531 L 65.855469 75.953125 " fill-opacity="1" fill-rule="nonzero"/></g><path fill="#f6d8c4" d="M 104.527344 88.507812 L 104.621094 75.953125 L 80.40625 75.953125 Z M 104.527344 88.507812 " fill-opacity="1" fill-rule="nonzero"/><g fill="#030303" fill-opacity="0.4"><g transform="translate(111.383088, 47.310573)"><g><path d="M 0.640625 0 L 0.640625 -0.296875 L 1.234375 -0.53125 C 1.628906 -0.664062 1.890625 -0.847656 2.015625 -1.078125 C 2.140625 -1.316406 2.203125 -1.625 2.203125 -2 L 2.203125 -17.421875 C 2.203125 -17.804688 2.140625 -18.117188 2.015625 -18.359375 C 1.890625 -18.597656 1.628906 -18.785156 1.234375 -18.921875 L 0.640625 -19.15625 L 0.640625 -19.453125 L 8.140625 -19.453125 L 8.140625 -19.15625 L 7.625 -18.953125 C 7.257812 -18.804688 7.003906 -18.617188 6.859375 -18.390625 C 6.722656 -18.171875 6.65625 -17.863281 6.65625 -17.46875 L 6.65625 -10.3125 L 13.703125 -10.3125 L 13.703125 -17.46875 C 13.703125 -17.863281 13.632812 -18.171875 13.5 -18.390625 C 13.375 -18.617188 13.117188 -18.804688 12.734375 -18.953125 L 12.203125 -19.15625 L 12.203125 -19.453125 L 19.71875 -19.453125 L 19.71875 -19.15625 L 19.125 -18.921875 C 18.75 -18.785156 18.492188 -18.597656 18.359375 -18.359375 C 18.222656 -18.117188 18.15625 -17.804688 18.15625 -17.421875 L 18.15625 -2 C 18.15625 -1.625 18.222656 -1.316406 18.359375 -1.078125 C 18.492188 -0.847656 18.75 -0.664062 19.125 -0.53125 L 19.71875 -0.296875 L 19.71875 0 L 12.203125 0 L 12.203125 -0.296875 L 12.734375 -0.46875 C 13.117188 -0.625 13.375 -0.816406 13.5 -1.046875 C 13.632812 -1.273438 13.703125 -1.582031 13.703125 -1.96875 L 13.703125 -9.71875 L 6.65625 -9.71875 L 6.65625 -1.96875 C 6.65625 -1.25 6.976562 -0.75 7.625 -0.46875 L 8.140625 -0.296875 L 8.140625 0 Z M 0.640625 0 "/></g></g></g><g fill="#030303" fill-opacity="0.4"><g transform="translate(131.745129, 47.310573)"><g><path d="M 0.234375 0 L 0.234375 -0.296875 L 0.96875 -0.5625 C 1.363281 -0.71875 1.664062 -0.90625 1.875 -1.125 C 2.09375 -1.351562 2.273438 -1.675781 2.421875 -2.09375 L 8.484375 -19.515625 L 10.984375 -19.515625 L 16.96875 -1.96875 C 17.125 -1.539062 17.300781 -1.210938 17.5 -0.984375 C 17.695312 -0.753906 18.003906 -0.5625 18.421875 -0.40625 L 18.765625 -0.296875 L 18.765625 0 L 11.28125 0 L 11.28125 -0.296875 L 11.734375 -0.4375 C 12.140625 -0.59375 12.382812 -0.8125 12.46875 -1.09375 C 12.5625 -1.382812 12.550781 -1.726562 12.4375 -2.125 L 11.046875 -6.359375 L 4.515625 -6.359375 L 3.09375 -2.203125 C 2.957031 -1.773438 2.910156 -1.429688 2.953125 -1.171875 C 3.003906 -0.921875 3.238281 -0.71875 3.65625 -0.5625 L 4.296875 -0.296875 L 4.296875 0 Z M 4.71875 -6.953125 L 10.875 -6.953125 L 7.890625 -16.125 Z M 4.71875 -6.953125 "/></g></g></g><g fill="#030303" fill-opacity="0.4"><g transform="translate(150.898998, 47.310573)"><g><path d="M 0.640625 0 L 0.640625 -0.296875 L 1.265625 -0.5 C 1.660156 -0.632812 1.914062 -0.816406 2.03125 -1.046875 C 2.144531 -1.273438 2.203125 -1.59375 2.203125 -2 L 2.203125 -17.421875 C 2.203125 -17.804688 2.148438 -18.113281 2.046875 -18.34375 C 1.941406 -18.570312 1.703125 -18.753906 1.328125 -18.890625 L 0.640625 -19.15625 L 0.640625 -19.453125 L 9.078125 -19.453125 C 11.390625 -19.453125 13.164062 -19.015625 14.40625 -18.140625 C 15.644531 -17.265625 16.265625 -16.050781 16.265625 -14.5 C 16.265625 -13.632812 15.941406 -12.769531 15.296875 -11.90625 C 14.648438 -11.039062 13.628906 -10.375 12.234375 -9.90625 L 16.328125 -1.765625 C 16.503906 -1.429688 16.703125 -1.160156 16.921875 -0.953125 C 17.148438 -0.742188 17.453125 -0.5625 17.828125 -0.40625 L 18.21875 -0.265625 L 18.21875 0 L 12.9375 0 L 8.578125 -9.28125 L 6.578125 -9.28125 L 6.578125 -2 C 6.578125 -1.625 6.632812 -1.316406 6.75 -1.078125 C 6.863281 -0.847656 7.109375 -0.675781 7.484375 -0.5625 L 8.1875 -0.296875 L 8.1875 0 Z M 6.578125 -9.875 L 7.984375 -9.875 C 9.398438 -9.875 10.421875 -10.25 11.046875 -11 C 11.679688 -11.757812 12 -12.882812 12 -14.375 C 12 -15.894531 11.703125 -17.019531 11.109375 -17.75 C 10.515625 -18.488281 9.523438 -18.859375 8.140625 -18.859375 L 6.578125 -18.859375 Z M 6.578125 -9.875 "/></g></g></g><g fill="#030303" fill-opacity="0.4"><g transform="translate(169.404589, 47.310573)"><g><path d="M 0.59375 0 L 0.59375 -0.296875 L 1.171875 -0.5 C 1.847656 -0.71875 2.1875 -1.28125 2.1875 -2.1875 L 2.1875 -17.265625 C 2.1875 -17.660156 2.140625 -17.972656 2.046875 -18.203125 C 1.960938 -18.441406 1.734375 -18.640625 1.359375 -18.796875 L 0.59375 -19.15625 L 0.59375 -19.453125 L 6.28125 -19.453125 L 11.734375 -5.1875 L 16.859375 -19.453125 L 22.65625 -19.453125 L 22.65625 -19.15625 L 22.1875 -18.984375 C 21.8125 -18.835938 21.554688 -18.640625 21.421875 -18.390625 C 21.285156 -18.148438 21.21875 -17.835938 21.21875 -17.453125 L 21.21875 -2.03125 C 21.21875 -1.632812 21.265625 -1.328125 21.359375 -1.109375 C 21.460938 -0.898438 21.703125 -0.71875 22.078125 -0.5625 L 22.65625 -0.296875 L 22.65625 0 L 15.328125 0 L 15.328125 -0.296875 L 15.9375 -0.5625 C 16.3125 -0.71875 16.546875 -0.898438 16.640625 -1.109375 C 16.742188 -1.328125 16.796875 -1.632812 16.796875 -2.03125 L 16.796875 -8.65625 L 16.859375 -17.09375 L 10.703125 0 L 9.21875 0 L 2.796875 -16.890625 L 2.890625 -9.546875 L 2.890625 -2.125 C 2.890625 -1.6875 2.953125 -1.332031 3.078125 -1.0625 C 3.203125 -0.800781 3.453125 -0.613281 3.828125 -0.5 L 4.484375 -0.296875 L 4.484375 0 Z M 0.59375 0 "/></g></g></g><g fill="#030303" fill-opacity="0.4"><g transform="translate(192.713376, 47.310573)"><g><path d="M 9.875 0.53125 C 8.675781 0.53125 7.519531 0.316406 6.40625 -0.109375 C 5.300781 -0.546875 4.3125 -1.191406 3.4375 -2.046875 C 2.5625 -2.898438 1.867188 -3.960938 1.359375 -5.234375 C 0.847656 -6.515625 0.59375 -8.007812 0.59375 -9.71875 C 0.59375 -11.414062 0.847656 -12.898438 1.359375 -14.171875 C 1.867188 -15.453125 2.566406 -16.519531 3.453125 -17.375 C 4.335938 -18.226562 5.332031 -18.875 6.4375 -19.3125 C 7.550781 -19.757812 8.695312 -19.984375 9.875 -19.984375 C 11.070312 -19.984375 12.222656 -19.769531 13.328125 -19.34375 C 14.441406 -18.925781 15.4375 -18.289062 16.3125 -17.4375 C 17.1875 -16.582031 17.878906 -15.507812 18.390625 -14.21875 C 18.898438 -12.925781 19.15625 -11.425781 19.15625 -9.71875 C 19.15625 -8.050781 18.898438 -6.570312 18.390625 -5.28125 C 17.878906 -4 17.1875 -2.929688 16.3125 -2.078125 C 15.4375 -1.222656 14.441406 -0.570312 13.328125 -0.125 C 12.222656 0.3125 11.070312 0.53125 9.875 0.53125 Z M 9.875 -0.09375 C 10.957031 -0.09375 11.832031 -0.378906 12.5 -0.953125 C 13.164062 -1.535156 13.648438 -2.53125 13.953125 -3.9375 C 14.253906 -5.34375 14.40625 -7.269531 14.40625 -9.71875 C 14.40625 -12.195312 14.253906 -14.140625 13.953125 -15.546875 C 13.648438 -16.953125 13.164062 -17.941406 12.5 -18.515625 C 11.832031 -19.097656 10.957031 -19.390625 9.875 -19.390625 C 8.8125 -19.390625 7.945312 -19.097656 7.28125 -18.515625 C 6.613281 -17.941406 6.125 -16.953125 5.8125 -15.546875 C 5.507812 -14.140625 5.359375 -12.195312 5.359375 -9.71875 C 5.359375 -7.269531 5.507812 -5.34375 5.8125 -3.9375 C 6.125 -2.53125 6.613281 -1.535156 7.28125 -0.953125 C 7.945312 -0.378906 8.8125 -0.09375 9.875 -0.09375 Z M 9.875 -0.09375 "/></g></g></g><g fill="#030303" fill-opacity="0.4"><g transform="translate(212.456597, 47.310573)"><g><path d="M 1.03125 0 L 1.03125 -0.296875 L 2 -0.59375 C 2.351562 -0.6875 2.609375 -0.875 2.765625 -1.15625 C 2.921875 -1.445312 3 -1.789062 3 -2.1875 L 3 -16.359375 C 2.789062 -16.828125 2.617188 -17.175781 2.484375 -17.40625 C 2.359375 -17.644531 2.21875 -17.847656 2.0625 -18.015625 C 1.90625 -18.179688 1.691406 -18.394531 1.421875 -18.65625 L 0.90625 -19.15625 L 0.90625 -19.453125 L 6.125 -19.453125 L 15.90625 -6.09375 L 15.90625 -17.203125 C 15.90625 -17.597656 15.84375 -17.953125 15.71875 -18.265625 C 15.59375 -18.578125 15.332031 -18.785156 14.9375 -18.890625 L 13.96875 -19.15625 L 13.96875 -19.453125 L 18.1875 -19.453125 L 18.1875 -19.15625 L 17.390625 -18.890625 C 17.035156 -18.773438 16.816406 -18.566406 16.734375 -18.265625 C 16.660156 -17.972656 16.625 -17.628906 16.625 -17.234375 L 16.625 0.09375 L 14.96875 0.09375 L 3.71875 -15.375 L 3.71875 -2.1875 C 3.71875 -1.789062 3.773438 -1.453125 3.890625 -1.171875 C 4.003906 -0.898438 4.25 -0.707031 4.625 -0.59375 L 5.515625 -0.296875 L 5.515625 0 Z M 1.03125 0 "/></g></g></g><g fill="#030303" fill-opacity="0.4"><g transform="translate(231.698874, 47.310573)"><g><path d="M 4.859375 0 L 4.859375 -0.296875 L 5.75 -0.53125 C 6.4375 -0.726562 6.78125 -1.21875 6.78125 -2 L 6.78125 -7.609375 L 1.921875 -17.5 C 1.742188 -17.894531 1.578125 -18.191406 1.421875 -18.390625 C 1.273438 -18.585938 1.054688 -18.753906 0.765625 -18.890625 L 0.234375 -19.15625 L 0.234375 -19.453125 L 8.140625 -19.453125 L 8.140625 -19.15625 L 7.609375 -18.953125 C 7.171875 -18.773438 6.929688 -18.53125 6.890625 -18.21875 C 6.859375 -17.914062 6.9375 -17.539062 7.125 -17.09375 L 10.609375 -9.375 L 14.5 -17.390625 C 14.65625 -17.703125 14.71875 -18.023438 14.6875 -18.359375 C 14.65625 -18.691406 14.445312 -18.90625 14.0625 -19 L 13.640625 -19.15625 L 13.640625 -19.453125 L 17.1875 -19.453125 L 17.1875 -19.15625 L 16.625 -18.953125 C 16.25 -18.804688 15.972656 -18.609375 15.796875 -18.359375 C 15.617188 -18.117188 15.441406 -17.816406 15.265625 -17.453125 L 11.234375 -8.953125 L 11.234375 -2 C 11.234375 -1.613281 11.304688 -1.296875 11.453125 -1.046875 C 11.597656 -0.796875 11.859375 -0.625 12.234375 -0.53125 L 13.140625 -0.296875 L 13.140625 0 Z M 4.859375 0 "/></g></g></g><g fill="#030303" fill-opacity="0.4"><g transform="translate(249.084701, 47.310573)"><g/></g></g><g fill="#030303" fill-opacity="0.4"><g transform="translate(255.508616, 47.310573)"><g><path d="M 9.875 0.53125 C 8.613281 0.53125 7.425781 0.304688 6.3125 -0.140625 L 5.015625 1.6875 C 6.285156 2 7.738281 2.332031 9.375 2.6875 C 11.019531 3.050781 12.640625 3.40625 14.234375 3.75 C 14.992188 3.90625 15.566406 3.976562 15.953125 3.96875 C 16.335938 3.957031 16.6875 3.851562 17 3.65625 L 17.796875 3.15625 L 18.03125 3.484375 L 16.53125 5.09375 C 16.101562 5.550781 15.679688 5.921875 15.265625 6.203125 C 14.847656 6.484375 14.382812 6.625 13.875 6.625 C 13.46875 6.625 12.878906 6.5625 12.109375 6.4375 C 11.347656 6.3125 10.492188 6.15625 9.546875 5.96875 C 8.609375 5.78125 7.664062 5.582031 6.71875 5.375 C 5.769531 5.164062 4.914062 4.984375 4.15625 4.828125 C 3.84375 4.753906 3.554688 4.738281 3.296875 4.78125 C 3.046875 4.832031 2.800781 4.988281 2.5625 5.25 L 2.203125 5.59375 L 1.859375 5.328125 L 5.5625 -0.5 C 4.132812 -1.226562 2.945312 -2.363281 2 -3.90625 C 1.0625 -5.445312 0.59375 -7.382812 0.59375 -9.71875 C 0.59375 -11.414062 0.847656 -12.898438 1.359375 -14.171875 C 1.867188 -15.453125 2.566406 -16.519531 3.453125 -17.375 C 4.335938 -18.226562 5.332031 -18.875 6.4375 -19.3125 C 7.550781 -19.757812 8.695312 -19.984375 9.875 -19.984375 C 11.070312 -19.984375 12.222656 -19.769531 13.328125 -19.34375 C 14.441406 -18.925781 15.4375 -18.289062 16.3125 -17.4375 C 17.1875 -16.582031 17.878906 -15.507812 18.390625 -14.21875 C 18.898438 -12.925781 19.15625 -11.425781 19.15625 -9.71875 C 19.15625 -8.050781 18.898438 -6.570312 18.390625 -5.28125 C 17.878906 -4 17.1875 -2.929688 16.3125 -2.078125 C 15.4375 -1.222656 14.441406 -0.570312 13.328125 -0.125 C 12.222656 0.3125 11.070312 0.53125 9.875 0.53125 Z M 9.875 -0.09375 C 10.957031 -0.09375 11.832031 -0.378906 12.5 -0.953125 C 13.164062 -1.535156 13.648438 -2.53125 13.953125 -3.9375 C 14.253906 -5.34375 14.40625 -7.269531 14.40625 -9.71875 C 14.40625 -12.195312 14.253906 -14.140625 13.953125 -15.546875 C 13.648438 -16.953125 13.164062 -17.941406 12.5 -18.515625 C 11.832031 -19.097656 10.957031 -19.390625 9.875 -19.390625 C 8.8125 -19.390625 7.945312 -19.097656 7.28125 -18.515625 C 6.613281 -17.941406 6.125 -16.953125 5.8125 -15.546875 C 5.507812 -14.140625 5.359375 -12.195312 5.359375 -9.71875 C 5.359375 -7.269531 5.507812 -5.34375 5.8125 -3.9375 C 6.125 -2.53125 6.613281 -1.535156 7.28125 -0.953125 C 7.945312 -0.378906 8.8125 -0.09375 9.875 -0.09375 Z M 9.875 -0.09375 "/></g></g></g><g fill="#030303" fill-opacity="0.4"><g transform="translate(275.251837, 47.310573)"><g><path d="M 9.984375 0.53125 C 8.492188 0.53125 7.171875 0.265625 6.015625 -0.265625 C 4.867188 -0.796875 3.976562 -1.632812 3.34375 -2.78125 C 2.707031 -3.9375 2.390625 -5.457031 2.390625 -7.34375 L 2.390625 -17.5 C 2.390625 -18.25 2.003906 -18.742188 1.234375 -18.984375 L 0.59375 -19.15625 L 0.59375 -19.453125 L 8.75 -19.453125 L 8.75 -19.15625 L 7.890625 -18.921875 C 7.171875 -18.742188 6.8125 -18.253906 6.8125 -17.453125 L 6.8125 -6.578125 C 6.8125 -4.742188 7.191406 -3.390625 7.953125 -2.515625 C 8.722656 -1.640625 9.820312 -1.203125 11.25 -1.203125 C 12.75 -1.203125 13.9375 -1.664062 14.8125 -2.59375 C 15.6875 -3.519531 16.125 -4.828125 16.125 -6.515625 L 16.125 -17.328125 C 16.125 -17.722656 16.054688 -18.070312 15.921875 -18.375 C 15.796875 -18.675781 15.535156 -18.878906 15.140625 -18.984375 L 14.40625 -19.15625 L 14.40625 -19.453125 L 18.53125 -19.453125 L 18.53125 -19.15625 L 17.734375 -18.953125 C 17.367188 -18.867188 17.125 -18.679688 17 -18.390625 C 16.882812 -18.097656 16.828125 -17.753906 16.828125 -17.359375 L 16.828125 -6.578125 C 16.828125 -5.140625 16.539062 -3.882812 15.96875 -2.8125 C 15.40625 -1.738281 14.609375 -0.910156 13.578125 -0.328125 C 12.554688 0.242188 11.359375 0.53125 9.984375 0.53125 Z M 9.984375 0.53125 "/></g></g></g><g fill="#030303" fill-opacity="0.4"><g transform="translate(294.376248, 47.310573)"><g><path d="M 0.640625 0 L 0.640625 -0.296875 L 1.328125 -0.5625 C 1.660156 -0.695312 1.890625 -0.875 2.015625 -1.09375 C 2.140625 -1.320312 2.203125 -1.632812 2.203125 -2.03125 L 2.203125 -17.421875 C 2.203125 -17.804688 2.148438 -18.113281 2.046875 -18.34375 C 1.941406 -18.570312 1.703125 -18.753906 1.328125 -18.890625 L 0.640625 -19.15625 L 0.640625 -19.453125 L 14.765625 -19.453125 L 14.9375 -14.90625 L 14.640625 -14.90625 L 13.375 -17.6875 C 13.195312 -18.039062 13.007812 -18.320312 12.8125 -18.53125 C 12.625 -18.75 12.332031 -18.859375 11.9375 -18.859375 L 6.625 -18.859375 L 6.625 -10.34375 L 9.78125 -10.34375 C 10.175781 -10.34375 10.472656 -10.445312 10.671875 -10.65625 C 10.878906 -10.863281 11.066406 -11.144531 11.234375 -11.5 L 11.8125 -12.671875 L 12.109375 -12.671875 L 12.109375 -7.375 L 11.8125 -7.375 L 11.234375 -8.609375 C 11.054688 -8.960938 10.867188 -9.238281 10.671875 -9.4375 C 10.472656 -9.644531 10.175781 -9.75 9.78125 -9.75 L 6.625 -9.75 L 6.625 -0.59375 L 12.578125 -0.59375 C 12.972656 -0.59375 13.28125 -0.691406 13.5 -0.890625 C 13.71875 -1.097656 13.894531 -1.390625 14.03125 -1.765625 L 15.234375 -4.53125 L 15.53125 -4.53125 L 15.359375 0 Z M 0.640625 0 "/></g></g></g><g fill="#030303" fill-opacity="0.4"><g transform="translate(310.730707, 47.310573)"><g><path d="M 6.984375 0.53125 C 5.898438 0.53125 4.796875 0.394531 3.671875 0.125 C 2.554688 -0.132812 1.628906 -0.476562 0.890625 -0.90625 L 1.03125 -4.921875 L 1.328125 -4.921875 L 2.234375 -3 C 2.515625 -2.457031 2.8125 -1.972656 3.125 -1.546875 C 3.4375 -1.117188 3.867188 -0.789062 4.421875 -0.5625 C 4.816406 -0.363281 5.191406 -0.226562 5.546875 -0.15625 C 5.910156 -0.09375 6.320312 -0.0625 6.78125 -0.0625 C 7.976562 -0.0625 8.925781 -0.382812 9.625 -1.03125 C 10.320312 -1.675781 10.671875 -2.507812 10.671875 -3.53125 C 10.671875 -4.5 10.429688 -5.25 9.953125 -5.78125 C 9.484375 -6.320312 8.726562 -6.851562 7.6875 -7.375 L 6.484375 -7.890625 C 4.796875 -8.640625 3.472656 -9.5 2.515625 -10.46875 C 1.566406 -11.445312 1.09375 -12.738281 1.09375 -14.34375 C 1.09375 -15.507812 1.390625 -16.515625 1.984375 -17.359375 C 2.585938 -18.203125 3.421875 -18.847656 4.484375 -19.296875 C 5.554688 -19.753906 6.8125 -19.984375 8.25 -19.984375 C 9.289062 -19.984375 10.273438 -19.84375 11.203125 -19.5625 C 12.140625 -19.289062 12.953125 -18.921875 13.640625 -18.453125 L 13.46875 -14.90625 L 13.171875 -14.90625 L 11.96875 -17.125 C 11.632812 -17.8125 11.300781 -18.296875 10.96875 -18.578125 C 10.632812 -18.859375 10.25 -19.0625 9.8125 -19.1875 C 9.5625 -19.257812 9.328125 -19.3125 9.109375 -19.34375 C 8.890625 -19.375 8.613281 -19.390625 8.28125 -19.390625 C 7.28125 -19.390625 6.4375 -19.097656 5.75 -18.515625 C 5.0625 -17.941406 4.71875 -17.160156 4.71875 -16.171875 C 4.71875 -15.171875 4.984375 -14.367188 5.515625 -13.765625 C 6.046875 -13.171875 6.820312 -12.640625 7.84375 -12.171875 L 9.1875 -11.578125 C 11.070312 -10.753906 12.425781 -9.875 13.25 -8.9375 C 14.082031 -8.007812 14.5 -6.804688 14.5 -5.328125 C 14.5 -3.597656 13.84375 -2.1875 12.53125 -1.09375 C 11.226562 -0.0078125 9.378906 0.53125 6.984375 0.53125 Z M 6.984375 0.53125 "/></g></g></g><g fill="#030303" fill-opacity="0.4"><g transform="translate(326.083267, 47.310573)"><g><path d="M 4.59375 0 L 4.59375 -0.296875 L 5.8125 -0.59375 C 6.613281 -0.769531 7.015625 -1.257812 7.015625 -2.0625 L 7.015625 -18.859375 L 4.515625 -18.859375 C 3.785156 -18.859375 3.257812 -18.664062 2.9375 -18.28125 C 2.625 -17.894531 2.289062 -17.367188 1.9375 -16.703125 L 0.890625 -14.640625 L 0.59375 -14.640625 L 0.734375 -19.453125 L 17.734375 -19.453125 L 17.859375 -14.640625 L 17.5625 -14.640625 L 16.5 -16.703125 C 16.164062 -17.367188 15.84375 -17.894531 15.53125 -18.28125 C 15.21875 -18.664062 14.695312 -18.859375 13.96875 -18.859375 L 11.46875 -18.859375 L 11.46875 -2.0625 C 11.46875 -1.257812 11.867188 -0.769531 12.671875 -0.59375 L 13.875 -0.296875 L 13.875 0 Z M 4.59375 0 "/></g></g></g><g fill="#030303" fill-opacity="1"><g transform="translate(110.08049, 46.007977)"><g><path d="M 0.640625 0 L 0.640625 -0.296875 L 1.234375 -0.53125 C 1.628906 -0.664062 1.890625 -0.847656 2.015625 -1.078125 C 2.140625 -1.316406 2.203125 -1.625 2.203125 -2 L 2.203125 -17.421875 C 2.203125 -17.804688 2.140625 -18.117188 2.015625 -18.359375 C 1.890625 -18.597656 1.628906 -18.785156 1.234375 -18.921875 L 0.640625 -19.15625 L 0.640625 -19.453125 L 8.140625 -19.453125 L 8.140625 -19.15625 L 7.625 -18.953125 C 7.257812 -18.804688 7.003906 -18.617188 6.859375 -18.390625 C 6.722656 -18.171875 6.65625 -17.863281 6.65625 -17.46875 L 6.65625 -10.3125 L 13.703125 -10.3125 L 13.703125 -17.46875 C 13.703125 -17.863281 13.632812 -18.171875 13.5 -18.390625 C 13.375 -18.617188 13.117188 -18.804688 12.734375 -18.953125 L 12.203125 -19.15625 L 12.203125 -19.453125 L 19.71875 -19.453125 L 19.71875 -19.15625 L 19.125 -18.921875 C 18.75 -18.785156 18.492188 -18.597656 18.359375 -18.359375 C 18.222656 -18.117188 18.15625 -17.804688 18.15625 -17.421875 L 18.15625 -2 C 18.15625 -1.625 18.222656 -1.316406 18.359375 -1.078125 C 18.492188 -0.847656 18.75 -0.664062 19.125 -0.53125 L 19.71875 -0.296875 L 19.71875 0 L 12.203125 0 L 12.203125 -0.296875 L 12.734375 -0.46875 C 13.117188 -0.625 13.375 -0.816406 13.5 -1.046875 C 13.632812 -1.273438 13.703125 -1.582031 13.703125 -1.96875 L 13.703125 -9.71875 L 6.65625 -9.71875 L 6.65625 -1.96875 C 6.65625 -1.25 6.976562 -0.75 7.625 -0.46875 L 8.140625 -0.296875 L 8.140625 0 Z M 0.640625 0 "/></g></g></g><g fill="#030303" fill-opacity="1"><g transform="translate(130.442531, 46.007977)"><g><path d="M 0.234375 0 L 0.234375 -0.296875 L 0.96875 -0.5625 C 1.363281 -0.71875 1.664062 -0.90625 1.875 -1.125 C 2.09375 -1.351562 2.273438 -1.675781 2.421875 -2.09375 L 8.484375 -19.515625 L 10.984375 -19.515625 L 16.96875 -1.96875 C 17.125 -1.539062 17.300781 -1.210938 17.5 -0.984375 C 17.695312 -0.753906 18.003906 -0.5625 18.421875 -0.40625 L 18.765625 -0.296875 L 18.765625 0 L 11.28125 0 L 11.28125 -0.296875 L 11.734375 -0.4375 C 12.140625 -0.59375 12.382812 -0.8125 12.46875 -1.09375 C 12.5625 -1.382812 12.550781 -1.726562 12.4375 -2.125 L 11.046875 -6.359375 L 4.515625 -6.359375 L 3.09375 -2.203125 C 2.957031 -1.773438 2.910156 -1.429688 2.953125 -1.171875 C 3.003906 -0.921875 3.238281 -0.71875 3.65625 -0.5625 L 4.296875 -0.296875 L 4.296875 0 Z M 4.71875 -6.953125 L 10.875 -6.953125 L 7.890625 -16.125 Z M 4.71875 -6.953125 "/></g></g></g><g fill="#030303" fill-opacity="1"><g transform="translate(149.5964, 46.007977)"><g><path d="M 0.640625 0 L 0.640625 -0.296875 L 1.265625 -0.5 C 1.660156 -0.632812 1.914062 -0.816406 2.03125 -1.046875 C 2.144531 -1.273438 2.203125 -1.59375 2.203125 -2 L 2.203125 -17.421875 C 2.203125 -17.804688 2.148438 -18.113281 2.046875 -18.34375 C 1.941406 -18.570312 1.703125 -18.753906 1.328125 -18.890625 L 0.640625 -19.15625 L 0.640625 -19.453125 L 9.078125 -19.453125 C 11.390625 -19.453125 13.164062 -19.015625 14.40625 -18.140625 C 15.644531 -17.265625 16.265625 -16.050781 16.265625 -14.5 C 16.265625 -13.632812 15.941406 -12.769531 15.296875 -11.90625 C 14.648438 -11.039062 13.628906 -10.375 12.234375 -9.90625 L 16.328125 -1.765625 C 16.503906 -1.429688 16.703125 -1.160156 16.921875 -0.953125 C 17.148438 -0.742188 17.453125 -0.5625 17.828125 -0.40625 L 18.21875 -0.265625 L 18.21875 0 L 12.9375 0 L 8.578125 -9.28125 L 6.578125 -9.28125 L 6.578125 -2 C 6.578125 -1.625 6.632812 -1.316406 6.75 -1.078125 C 6.863281 -0.847656 7.109375 -0.675781 7.484375 -0.5625 L 8.1875 -0.296875 L 8.1875 0 Z M 6.578125 -9.875 L 7.984375 -9.875 C 9.398438 -9.875 10.421875 -10.25 11.046875 -11 C 11.679688 -11.757812 12 -12.882812 12 -14.375 C 12 -15.894531 11.703125 -17.019531 11.109375 -17.75 C 10.515625 -18.488281 9.523438 -18.859375 8.140625 -18.859375 L 6.578125 -18.859375 Z M 6.578125 -9.875 "/></g></g></g><g fill="#030303" fill-opacity="1"><g transform="translate(168.10199, 46.007977)"><g><path d="M 0.59375 0 L 0.59375 -0.296875 L 1.171875 -0.5 C 1.847656 -0.71875 2.1875 -1.28125 2.1875 -2.1875 L 2.1875 -17.265625 C 2.1875 -17.660156 2.140625 -17.972656 2.046875 -18.203125 C 1.960938 -18.441406 1.734375 -18.640625 1.359375 -18.796875 L 0.59375 -19.15625 L 0.59375 -19.453125 L 6.28125 -19.453125 L 11.734375 -5.1875 L 16.859375 -19.453125 L 22.65625 -19.453125 L 22.65625 -19.15625 L 22.1875 -18.984375 C 21.8125 -18.835938 21.554688 -18.640625 21.421875 -18.390625 C 21.285156 -18.148438 21.21875 -17.835938 21.21875 -17.453125 L 21.21875 -2.03125 C 21.21875 -1.632812 21.265625 -1.328125 21.359375 -1.109375 C 21.460938 -0.898438 21.703125 -0.71875 22.078125 -0.5625 L 22.65625 -0.296875 L 22.65625 0 L 15.328125 0 L 15.328125 -0.296875 L 15.9375 -0.5625 C 16.3125 -0.71875 16.546875 -0.898438 16.640625 -1.109375 C 16.742188 -1.328125 16.796875 -1.632812 16.796875 -2.03125 L 16.796875 -8.65625 L 16.859375 -17.09375 L 10.703125 0 L 9.21875 0 L 2.796875 -16.890625 L 2.890625 -9.546875 L 2.890625 -2.125 C 2.890625 -1.6875 2.953125 -1.332031 3.078125 -1.0625 C 3.203125 -0.800781 3.453125 -0.613281 3.828125 -0.5 L 4.484375 -0.296875 L 4.484375 0 Z M 0.59375 0 "/></g></g></g><g fill="#030303" fill-opacity="1"><g transform="translate(191.410778, 46.007977)"><g><path d="M 9.875 0.53125 C 8.675781 0.53125 7.519531 0.316406 6.40625 -0.109375 C 5.300781 -0.546875 4.3125 -1.191406 3.4375 -2.046875 C 2.5625 -2.898438 1.867188 -3.960938 1.359375 -5.234375 C 0.847656 -6.515625 0.59375 -8.007812 0.59375 -9.71875 C 0.59375 -11.414062 0.847656 -12.898438 1.359375 -14.171875 C 1.867188 -15.453125 2.566406 -16.519531 3.453125 -17.375 C 4.335938 -18.226562 5.332031 -18.875 6.4375 -19.3125 C 7.550781 -19.757812 8.695312 -19.984375 9.875 -19.984375 C 11.070312 -19.984375 12.222656 -19.769531 13.328125 -19.34375 C 14.441406 -18.925781 15.4375 -18.289062 16.3125 -17.4375 C 17.1875 -16.582031 17.878906 -15.507812 18.390625 -14.21875 C 18.898438 -12.925781 19.15625 -11.425781 19.15625 -9.71875 C 19.15625 -8.050781 18.898438 -6.570312 18.390625 -5.28125 C 17.878906 -4 17.1875 -2.929688 16.3125 -2.078125 C 15.4375 -1.222656 14.441406 -0.570312 13.328125 -0.125 C 12.222656 0.3125 11.070312 0.53125 9.875 0.53125 Z M 9.875 -0.09375 C 10.957031 -0.09375 11.832031 -0.378906 12.5 -0.953125 C 13.164062 -1.535156 13.648438 -2.53125 13.953125 -3.9375 C 14.253906 -5.34375 14.40625 -7.269531 14.40625 -9.71875 C 14.40625 -12.195312 14.253906 -14.140625 13.953125 -15.546875 C 13.648438 -16.953125 13.164062 -17.941406 12.5 -18.515625 C 11.832031 -19.097656 10.957031 -19.390625 9.875 -19.390625 C 8.8125 -19.390625 7.945312 -19.097656 7.28125 -18.515625 C 6.613281 -17.941406 6.125 -16.953125 5.8125 -15.546875 C 5.507812 -14.140625 5.359375 -12.195312 5.359375 -9.71875 C 5.359375 -7.269531 5.507812 -5.34375 5.8125 -3.9375 C 6.125 -2.53125 6.613281 -1.535156 7.28125 -0.953125 C 7.945312 -0.378906 8.8125 -0.09375 9.875 -0.09375 Z M 9.875 -0.09375 "/></g></g></g><g fill="#030303" fill-opacity="1"><g transform="translate(211.153998, 46.007977)"><g><path d="M 1.03125 0 L 1.03125 -0.296875 L 2 -0.59375 C 2.351562 -0.6875 2.609375 -0.875 2.765625 -1.15625 C 2.921875 -1.445312 3 -1.789062 3 -2.1875 L 3 -16.359375 C 2.789062 -16.828125 2.617188 -17.175781 2.484375 -17.40625 C 2.359375 -17.644531 2.21875 -17.847656 2.0625 -18.015625 C 1.90625 -18.179688 1.691406 -18.394531 1.421875 -18.65625 L 0.90625 -19.15625 L 0.90625 -19.453125 L 6.125 -19.453125 L 15.90625 -6.09375 L 15.90625 -17.203125 C 15.90625 -17.597656 15.84375 -17.953125 15.71875 -18.265625 C 15.59375 -18.578125 15.332031 -18.785156 14.9375 -18.890625 L 13.96875 -19.15625 L 13.96875 -19.453125 L 18.1875 -19.453125 L 18.1875 -19.15625 L 17.390625 -18.890625 C 17.035156 -18.773438 16.816406 -18.566406 16.734375 -18.265625 C 16.660156 -17.972656 16.625 -17.628906 16.625 -17.234375 L 16.625 0.09375 L 14.96875 0.09375 L 3.71875 -15.375 L 3.71875 -2.1875 C 3.71875 -1.789062 3.773438 -1.453125 3.890625 -1.171875 C 4.003906 -0.898438 4.25 -0.707031 4.625 -0.59375 L 5.515625 -0.296875 L 5.515625 0 Z M 1.03125 0 "/></g></g></g><g fill="#030303" fill-opacity="1"><g transform="translate(230.396276, 46.007977)"><g><path d="M 4.859375 0 L 4.859375 -0.296875 L 5.75 -0.53125 C 6.4375 -0.726562 6.78125 -1.21875 6.78125 -2 L 6.78125 -7.609375 L 1.921875 -17.5 C 1.742188 -17.894531 1.578125 -18.191406 1.421875 -18.390625 C 1.273438 -18.585938 1.054688 -18.753906 0.765625 -18.890625 L 0.234375 -19.15625 L 0.234375 -19.453125 L 8.140625 -19.453125 L 8.140625 -19.15625 L 7.609375 -18.953125 C 7.171875 -18.773438 6.929688 -18.53125 6.890625 -18.21875 C 6.859375 -17.914062 6.9375 -17.539062 7.125 -17.09375 L 10.609375 -9.375 L 14.5 -17.390625 C 14.65625 -17.703125 14.71875 -18.023438 14.6875 -18.359375 C 14.65625 -18.691406 14.445312 -18.90625 14.0625 -19 L 13.640625 -19.15625 L 13.640625 -19.453125 L 17.1875 -19.453125 L 17.1875 -19.15625 L 16.625 -18.953125 C 16.25 -18.804688 15.972656 -18.609375 15.796875 -18.359375 C 15.617188 -18.117188 15.441406 -17.816406 15.265625 -17.453125 L 11.234375 -8.953125 L 11.234375 -2 C 11.234375 -1.613281 11.304688 -1.296875 11.453125 -1.046875 C 11.597656 -0.796875 11.859375 -0.625 12.234375 -0.53125 L 13.140625 -0.296875 L 13.140625 0 Z M 4.859375 0 "/></g></g></g><g fill="#030303" fill-opacity="1"><g transform="translate(247.782102, 46.007977)"><g/></g></g><g fill="#030303" fill-opacity="1"><g transform="translate(254.206018, 46.007977)"><g><path d="M 9.875 0.53125 C 8.613281 0.53125 7.425781 0.304688 6.3125 -0.140625 L 5.015625 1.6875 C 6.285156 2 7.738281 2.332031 9.375 2.6875 C 11.019531 3.050781 12.640625 3.40625 14.234375 3.75 C 14.992188 3.90625 15.566406 3.976562 15.953125 3.96875 C 16.335938 3.957031 16.6875 3.851562 17 3.65625 L 17.796875 3.15625 L 18.03125 3.484375 L 16.53125 5.09375 C 16.101562 5.550781 15.679688 5.921875 15.265625 6.203125 C 14.847656 6.484375 14.382812 6.625 13.875 6.625 C 13.46875 6.625 12.878906 6.5625 12.109375 6.4375 C 11.347656 6.3125 10.492188 6.15625 9.546875 5.96875 C 8.609375 5.78125 7.664062 5.582031 6.71875 5.375 C 5.769531 5.164062 4.914062 4.984375 4.15625 4.828125 C 3.84375 4.753906 3.554688 4.738281 3.296875 4.78125 C 3.046875 4.832031 2.800781 4.988281 2.5625 5.25 L 2.203125 5.59375 L 1.859375 5.328125 L 5.5625 -0.5 C 4.132812 -1.226562 2.945312 -2.363281 2 -3.90625 C 1.0625 -5.445312 0.59375 -7.382812 0.59375 -9.71875 C 0.59375 -11.414062 0.847656 -12.898438 1.359375 -14.171875 C 1.867188 -15.453125 2.566406 -16.519531 3.453125 -17.375 C 4.335938 -18.226562 5.332031 -18.875 6.4375 -19.3125 C 7.550781 -19.757812 8.695312 -19.984375 9.875 -19.984375 C 11.070312 -19.984375 12.222656 -19.769531 13.328125 -19.34375 C 14.441406 -18.925781 15.4375 -18.289062 16.3125 -17.4375 C 17.1875 -16.582031 17.878906 -15.507812 18.390625 -14.21875 C 18.898438 -12.925781 19.15625 -11.425781 19.15625 -9.71875 C 19.15625 -8.050781 18.898438 -6.570312 18.390625 -5.28125 C 17.878906 -4 17.1875 -2.929688 16.3125 -2.078125 C 15.4375 -1.222656 14.441406 -0.570312 13.328125 -0.125 C 12.222656 0.3125 11.070312 0.53125 9.875 0.53125 Z M 9.875 -0.09375 C 10.957031 -0.09375 11.832031 -0.378906 12.5 -0.953125 C 13.164062 -1.535156 13.648438 -2.53125 13.953125 -3.9375 C 14.253906 -5.34375 14.40625 -7.269531 14.40625 -9.71875 C 14.40625 -12.195312 14.253906 -14.140625 13.953125 -15.546875 C 13.648438 -16.953125 13.164062 -17.941406 12.5 -18.515625 C 11.832031 -19.097656 10.957031 -19.390625 9.875 -19.390625 C 8.8125 -19.390625 7.945312 -19.097656 7.28125 -18.515625 C 6.613281 -17.941406 6.125 -16.953125 5.8125 -15.546875 C 5.507812 -14.140625 5.359375 -12.195312 5.359375 -9.71875 C 5.359375 -7.269531 5.507812 -5.34375 5.8125 -3.9375 C 6.125 -2.53125 6.613281 -1.535156 7.28125 -0.953125 C 7.945312 -0.378906 8.8125 -0.09375 9.875 -0.09375 Z M 9.875 -0.09375 "/></g></g></g><g fill="#030303" fill-opacity="1"><g transform="translate(273.949238, 46.007977)"><g><path d="M 9.984375 0.53125 C 8.492188 0.53125 7.171875 0.265625 6.015625 -0.265625 C 4.867188 -0.796875 3.976562 -1.632812 3.34375 -2.78125 C 2.707031 -3.9375 2.390625 -5.457031 2.390625 -7.34375 L 2.390625 -17.5 C 2.390625 -18.25 2.003906 -18.742188 1.234375 -18.984375 L 0.59375 -19.15625 L 0.59375 -19.453125 L 8.75 -19.453125 L 8.75 -19.15625 L 7.890625 -18.921875 C 7.171875 -18.742188 6.8125 -18.253906 6.8125 -17.453125 L 6.8125 -6.578125 C 6.8125 -4.742188 7.191406 -3.390625 7.953125 -2.515625 C 8.722656 -1.640625 9.820312 -1.203125 11.25 -1.203125 C 12.75 -1.203125 13.9375 -1.664062 14.8125 -2.59375 C 15.6875 -3.519531 16.125 -4.828125 16.125 -6.515625 L 16.125 -17.328125 C 16.125 -17.722656 16.054688 -18.070312 15.921875 -18.375 C 15.796875 -18.675781 15.535156 -18.878906 15.140625 -18.984375 L 14.40625 -19.15625 L 14.40625 -19.453125 L 18.53125 -19.453125 L 18.53125 -19.15625 L 17.734375 -18.953125 C 17.367188 -18.867188 17.125 -18.679688 17 -18.390625 C 16.882812 -18.097656 16.828125 -17.753906 16.828125 -17.359375 L 16.828125 -6.578125 C 16.828125 -5.140625 16.539062 -3.882812 15.96875 -2.8125 C 15.40625 -1.738281 14.609375 -0.910156 13.578125 -0.328125 C 12.554688 0.242188 11.359375 0.53125 9.984375 0.53125 Z M 9.984375 0.53125 "/></g></g></g><g fill="#030303" fill-opacity="1"><g transform="translate(293.07365, 46.007977)"><g><path d="M 0.640625 0 L 0.640625 -0.296875 L 1.328125 -0.5625 C 1.660156 -0.695312 1.890625 -0.875 2.015625 -1.09375 C 2.140625 -1.320312 2.203125 -1.632812 2.203125 -2.03125 L 2.203125 -17.421875 C 2.203125 -17.804688 2.148438 -18.113281 2.046875 -18.34375 C 1.941406 -18.570312 1.703125 -18.753906 1.328125 -18.890625 L 0.640625 -19.15625 L 0.640625 -19.453125 L 14.765625 -19.453125 L 14.9375 -14.90625 L 14.640625 -14.90625 L 13.375 -17.6875 C 13.195312 -18.039062 13.007812 -18.320312 12.8125 -18.53125 C 12.625 -18.75 12.332031 -18.859375 11.9375 -18.859375 L 6.625 -18.859375 L 6.625 -10.34375 L 9.78125 -10.34375 C 10.175781 -10.34375 10.472656 -10.445312 10.671875 -10.65625 C 10.878906 -10.863281 11.066406 -11.144531 11.234375 -11.5 L 11.8125 -12.671875 L 12.109375 -12.671875 L 12.109375 -7.375 L 11.8125 -7.375 L 11.234375 -8.609375 C 11.054688 -8.960938 10.867188 -9.238281 10.671875 -9.4375 C 10.472656 -9.644531 10.175781 -9.75 9.78125 -9.75 L 6.625 -9.75 L 6.625 -0.59375 L 12.578125 -0.59375 C 12.972656 -0.59375 13.28125 -0.691406 13.5 -0.890625 C 13.71875 -1.097656 13.894531 -1.390625 14.03125 -1.765625 L 15.234375 -4.53125 L 15.53125 -4.53125 L 15.359375 0 Z M 0.640625 0 "/></g></g></g><g fill="#030303" fill-opacity="1"><g transform="translate(309.428109, 46.007977)"><g><path d="M 6.984375 0.53125 C 5.898438 0.53125 4.796875 0.394531 3.671875 0.125 C 2.554688 -0.132812 1.628906 -0.476562 0.890625 -0.90625 L 1.03125 -4.921875 L 1.328125 -4.921875 L 2.234375 -3 C 2.515625 -2.457031 2.8125 -1.972656 3.125 -1.546875 C 3.4375 -1.117188 3.867188 -0.789062 4.421875 -0.5625 C 4.816406 -0.363281 5.191406 -0.226562 5.546875 -0.15625 C 5.910156 -0.09375 6.320312 -0.0625 6.78125 -0.0625 C 7.976562 -0.0625 8.925781 -0.382812 9.625 -1.03125 C 10.320312 -1.675781 10.671875 -2.507812 10.671875 -3.53125 C 10.671875 -4.5 10.429688 -5.25 9.953125 -5.78125 C 9.484375 -6.320312 8.726562 -6.851562 7.6875 -7.375 L 6.484375 -7.890625 C 4.796875 -8.640625 3.472656 -9.5 2.515625 -10.46875 C 1.566406 -11.445312 1.09375 -12.738281 1.09375 -14.34375 C 1.09375 -15.507812 1.390625 -16.515625 1.984375 -17.359375 C 2.585938 -18.203125 3.421875 -18.847656 4.484375 -19.296875 C 5.554688 -19.753906 6.8125 -19.984375 8.25 -19.984375 C 9.289062 -19.984375 10.273438 -19.84375 11.203125 -19.5625 C 12.140625 -19.289062 12.953125 -18.921875 13.640625 -18.453125 L 13.46875 -14.90625 L 13.171875 -14.90625 L 11.96875 -17.125 C 11.632812 -17.8125 11.300781 -18.296875 10.96875 -18.578125 C 10.632812 -18.859375 10.25 -19.0625 9.8125 -19.1875 C 9.5625 -19.257812 9.328125 -19.3125 9.109375 -19.34375 C 8.890625 -19.375 8.613281 -19.390625 8.28125 -19.390625 C 7.28125 -19.390625 6.4375 -19.097656 5.75 -18.515625 C 5.0625 -17.941406 4.71875 -17.160156 4.71875 -16.171875 C 4.71875 -15.171875 4.984375 -14.367188 5.515625 -13.765625 C 6.046875 -13.171875 6.820312 -12.640625 7.84375 -12.171875 L 9.1875 -11.578125 C 11.070312 -10.753906 12.425781 -9.875 13.25 -8.9375 C 14.082031 -8.007812 14.5 -6.804688 14.5 -5.328125 C 14.5 -3.597656 13.84375 -2.1875 12.53125 -1.09375 C 11.226562 -0.0078125 9.378906 0.53125 6.984375 0.53125 Z M 6.984375 0.53125 "/></g></g></g><g fill="#030303" fill-opacity="1"><g transform="translate(324.780669, 46.007977)"><g><path d="M 4.59375 0 L 4.59375 -0.296875 L 5.8125 -0.59375 C 6.613281 -0.769531 7.015625 -1.257812 7.015625 -2.0625 L 7.015625 -18.859375 L 4.515625 -18.859375 C 3.785156 -18.859375 3.257812 -18.664062 2.9375 -18.28125 C 2.625 -17.894531 2.289062 -17.367188 1.9375 -16.703125 L 0.890625 -14.640625 L 0.59375 -14.640625 L 0.734375 -19.453125 L 17.734375 -19.453125 L 17.859375 -14.640625 L 17.5625 -14.640625 L 16.5 -16.703125 C 16.164062 -17.367188 15.84375 -17.894531 15.53125 -18.28125 C 15.21875 -18.664062 14.695312 -18.859375 13.96875 -18.859375 L 11.46875 -18.859375 L 11.46875 -2.0625 C 11.46875 -1.257812 11.867188 -0.769531 12.671875 -0.59375 L 13.875 -0.296875 L 13.875 0 Z M 4.59375 0 "/></g></g></g></svg>